<?xml version="1.0" encoding="UTF-8"?>
<svg width="150" height="150" version="1.1" viewBox="0 0 150 150" xmlns="http://www.w3.org/2000/svg">
 <path d="m74.703 13.453c9.0195 0 13.284 0.0072 17.201 0.6988 10.611 1.8737 20.223 7.4235 27.152 15.676 2.557 3.0459 4.695 6.7359 9.205 14.547 4.51 7.8112 6.636 11.508 7.996 15.246 3.682 10.126 3.682 21.226-1e-3 31.352-1.359 3.7375-3.485 7.4347-7.995 15.246s-6.648 11.501-9.205 14.547c-6.929 8.253-16.541 13.802-27.152 15.676-3.9164 0.692-8.1814 0.699-17.201 0.699-9.0196 0-13.285-7e-3 -17.201-0.699-10.611-1.874-20.223-7.423-27.152-15.676-2.5572-3.046-4.6959-6.736-9.2057-14.547s-6.636-11.508-7.9952-15.246c-3.6828-10.126-3.6828-21.226-1e-4 -31.352 1.3593-3.7374 3.4855-7.4346 7.9953-15.246 4.5098-7.8111 6.6486-11.501 9.2057-14.547 6.9281-8.2524 16.541-13.802 27.152-15.676 3.9163-0.6916 8.1813-0.6988 17.201-0.6988z" fill="none" stroke="#000" stroke-width="4"/>
 <path d="m76.316 27.328c0-0.9727-0.7885-1.7613-1.7613-1.7613-0.9727 0-1.7612 0.7886-1.7612 1.7613s0.7885 1.7613 1.7612 1.7613c0.9728 0 1.7613-0.7886 1.7613-1.7613zm0 8.8064c0-0.9728-0.7885-1.7613-1.7613-1.7613-0.9727 0-1.7612 0.7885-1.7612 1.7613 0 0.9727 0.7885 1.7612 1.7612 1.7612 0.9728 0 1.7613-0.7885 1.7613-1.7612zm-1.7613 7.0451c0.9728 0 1.7613 0.7885 1.7613 1.7613 0 0.9727-0.7885 1.7612-1.7613 1.7612-0.9727 0-1.7612-0.7885-1.7612-1.7612 0-0.9728 0.7885-1.7613 1.7612-1.7613zm8.8066-10.568c0-0.9727-0.7885-1.7613-1.7612-1.7613-0.9728 0-1.7613 0.7886-1.7613 1.7613s0.7885 1.7613 1.7613 1.7613c0.9727 0 1.7612-0.7886 1.7612-1.7613zm-1.7612 7.0451c0.9727 0 1.7612 0.7886 1.7612 1.7613s-0.7885 1.7613-1.7612 1.7613c-0.9728 0-1.7613-0.7886-1.7613-1.7613s0.7885-1.7613 1.7613-1.7613zm-12.328 1.7613c0-0.9727-0.7886-1.7613-1.7613-1.7613s-1.7613 0.7886-1.7613 1.7613 0.7886 1.7613 1.7613 1.7613 1.7613-0.7886 1.7613-1.7613zm-1.7613-10.568c0.9727 0 1.7613 0.7886 1.7613 1.7613s-0.7886 1.7613-1.7613 1.7613-1.7613-0.7886-1.7613-1.7613 0.7886-1.7613 1.7613-1.7613z" clip-rule="evenodd" fill-rule="evenodd"/>
</svg>
