<?xml version="1.0" encoding="UTF-8"?>
<!-- Created with Inkscape (http://www.inkscape.org/) -->
<svg width="36.543mm" height="34.396mm" version="1.1" viewBox="0 0 36.543 34.396"
     xmlns="http://www.w3.org/2000/svg">
  <style type="text/css">
    .press {
    animation: press 5s infinite;
    }

    @keyframes press {
    0%, 5%, 15%, 25%, 35%, 100% {
    opacity: 0;
    }
    10%, 20%, 30% {
    opacity: 0.75;
    }
    }
  </style>
  <defs>
    <radialGradient id="radialGradient1966" cx="65.5" cy="109.5" r="13"
                    gradientTransform="matrix(.26458 0 0 .26458 .94109 -11.841)"
                    gradientUnits="userSpaceOnUse">
      <stop stop-color="#0078CC" offset="0"/>
      <stop stop-color="#0078CC" offset=".6"/>
      <stop stop-color="#0078CC" stop-opacity="0" offset="1"/>
    </radialGradient>
  </defs>
  <g transform="matrix(1.1785 0 0 1.1785 .3141 .30762)" stroke-width=".28651">
    <path
      d="m26.044 24.285 0.05129 0.02951 3.2164-5.5706c0.77644-1.3449 1.1644-2.8453 1.1644-4.3458 0-1.509-0.39309-3.0181-1.1778-4.3681l-3.3055-5.6841c-1.5509-2.6674-4.4002-4.3123-7.4856-4.322l-6.5754-0.020342h-0.02722c-3.1038 0-5.9732 1.6557-7.526 4.3452l-3.2164 5.5706c-0.77616 1.3449-1.1641 2.8456-1.1641 4.3461 0 1.509 0.39281 3.0178 1.1778 4.3678l3.3055 5.6841c1.5512 2.6674 4.3999 4.3123 7.4856 4.322l6.5751 0.02034h0.02722c3.1043 0 5.9734-1.6557 7.526-4.3452l-0.05129-0.02951-0.051-0.02951c-1.5317 2.6525-4.3618 4.2859-7.4238 4.2859h-0.02693l-6.5751-0.02034c-3.0436-0.0097-5.8537-1.632-7.3836-4.263l-3.3055-5.6844c-0.77444-1.3314-1.1618-2.8198-1.1618-4.3083 0-1.4801 0.38278-2.9602 1.1483-4.2868l3.2164-5.5709c1.5314-2.6525 4.3618-4.2859 7.4235-4.2859h0.02693l6.5754 0.020342c3.0433 0.009741 5.8537 1.632 7.3836 4.263l3.3055 5.6844c0.77415 1.3317 1.1615 2.8201 1.1615 4.3085 0 1.4801-0.38249 2.9602-1.1483 4.2865l-3.2161 5.5709 0.051 0.02951"
      stroke="#000" stroke-width=".52917"/>
    <path
      d="m15.237 25.173v-0.05931c-2.9774 0-5.6723-1.2065-7.6235-3.1576s-3.1579-4.646-3.1579-7.6235 1.2068-5.6723 3.1579-7.6235 4.646-3.1576 7.6235-3.1576c2.9771 0 5.672 1.2065 7.6232 3.1576 1.9511 1.9511 3.1576 4.646 3.1576 7.6235s-1.2065 5.6723-3.1576 7.6235c-1.9511 1.9511-4.646 3.1576-7.6232 3.1576v0.11833c6.0193 0 10.899-4.8798 10.899-10.899 0-6.0196-4.8798-10.899-10.899-10.899-6.0199 0-10.9 4.8798-10.9 10.899 0 6.0196 4.8798 10.899 10.9 10.899z"
      stroke="#000" stroke-width=".26458"/>
    <path
      d="m12.026 18.815h0.05902v-9.9276h-5.1139v10.683h4.4251l0.68877-0.73203v-0.02349h-0.05902l-0.04326-0.0404-0.63777 0.6776h-4.2555v-10.446h4.8773v9.8092l0.11825 0.02309-0.1022-0.06349z"/>
    <path
      d="m12.026 18.815h0.05902v-9.9276h-5.1139v10.683h4.4251l0.68877-0.73203v-0.02349h-0.05902l-0.04326-0.0404-0.63777 0.6776h-4.2555v-10.446h4.8773v9.8092l0.11825 0.02309-0.1022-0.06349z"/>
    <path
      d="m15.237 15.956v-0.12692c-0.02116-0.08183 0 0.16904 0 0.25356 0.99849 0 1.8076-0.80939 1.8076-1.8079 0-0.99849-0.8091-1.8079-1.8076-1.8079-0.99877 0-1.8082 0.80939-1.8082 1.8079 0 0.99849 0.80939 1.8079 1.8082 1.8079z"/>
    <path
      d="m15.237 18.899v-0.05902c-0.52632-0.0011-0.95236-0.4269-0.95322-0.95322 8.6e-4 -0.52632 0.4269-0.95179 0.95322-0.95293 0.52632 0.0011 0.95179 0.42661 0.95265 0.95293-8.6e-4 0.52632-0.42633 0.95207-0.95265 0.95322v0.11833c0.59164-2.87e-4 1.071-0.4799 1.071-1.0715s-0.47933-1.0713-1.071-1.0713c-0.59193 0-1.0715 0.47962-1.0715 1.0713s0.47962 1.0713 1.0715 1.0715z"
      stroke="#000" stroke-width=".26458"/>
    <path
      d="m15.237 11.676v-0.05931c-0.52632-8.59e-4 -0.95236-0.42661-0.95322-0.95293 8.6e-4 -0.52632 0.4269-0.95207 0.95322-0.95293 0.52632 8.595e-4 0.95179 0.42661 0.95265 0.95293-8.6e-4 0.52632-0.42633 0.95207-0.95265 0.95293v0.11833c0.59164 0 1.071-0.47962 1.071-1.0713s-0.47933-1.0713-1.071-1.0713c-0.59193 0-1.0715 0.47933-1.0715 1.0713 0 0.59164 0.47962 1.0713 1.0715 1.0713z"
      fill="none" stroke="#000" stroke-width=".26458"/>
  </g>
  <circle class="press" cx="18.271" cy="17.131" r="3.4396" fill="url(#radialGradient1966)"
          stroke-width=".26458"/>
</svg>
