<?xml version="1.0" encoding="UTF-8"?>
<svg width="150" height="150" version="1.1" viewBox="0 0 150 150" xmlns="http://www.w3.org/2000/svg">
 <path d="m131 15h-111c-2.2091 0-4 1.7909-4 4v111c0 2.209 1.7909 4 4 4h111c2.209 0 4-1.791 4-4v-111c0-2.2091-1.791-4-4-4zm-111-4c-4.4183 0-8 3.5817-8 8v111c0 4.418 3.5817 8 8 8h111c4.418 0 8-3.582 8-8v-111c0-4.4183-3.582-8-8-8h-111z" clip-rule="evenodd" fill-rule="evenodd"/>
 <line x1="62" x2="89" y1="74" y2="74" fill="none" stroke="#000" stroke-linecap="round" stroke-width="2"/>
 <rect x="23" y="22" width="105" height="105" rx="7" fill="none" stroke="#000" stroke-width="2"/>
</svg>
