<?xml version="1.0" encoding="UTF-8"?>
<!-- Created with Inkscape (http://www.inkscape.org/) -->
<svg width="34.436mm" height="34.434mm" version="1.1" viewBox="0 0 34.436 34.434"
     xmlns="http://www.w3.org/2000/svg">
  <style type="text/css">.press {
    animation: press 10s infinite;
    }

    @keyframes press {
    0%, 27.5%, 32.5%, 37.5%, 42.5%, 100% {
    opacity: 0;
    }
    30%, 35%, 40% {
    opacity: 0.75;
    }
    }
    .switch {
    animation: switch 10s infinite;
    }
    @keyframes switch {
    0%, 20%, 100% {
    opacity: 0;
    }
    5%, 15% {
    opacity: 0.75;
    }
    }
  </style>
  <defs>
    <radialGradient id="radialGradient1966-3" cx="65.5" cy="109.5" r="13"
                    gradientTransform="matrix(.26458 0 0 .26458 -10.096 -13.757)"
                    gradientUnits="userSpaceOnUse">
      <stop stop-color="#0078CC" offset="0"/>
      <stop stop-color="#0078CC" offset=".6"/>
      <stop stop-color="#0078CC" stop-opacity="0" offset="1"/>
    </radialGradient>
    <radialGradient id="radialGradient1966-35" cx="65.5" cy="109.5" r="13"
                    gradientTransform="matrix(.26458 0 0 .26458 12.314 -24.22)"
                    gradientUnits="userSpaceOnUse">
      <stop stop-color="#0078CC" offset="0"/>
      <stop stop-color="#0078CC" offset=".6"/>
      <stop stop-color="#0078CC" stop-opacity="0" offset="1"/>
    </radialGradient>
  </defs>
  <path
    d="m31.9 1.4789h-29.369c-0.58449 0-1.0583 0.47384-1.0583 1.0583v29.369c0 0.58446 0.47384 1.0583 1.0583 1.0583h29.369c0.58446 0 1.0583-0.47387 1.0583-1.0583v-29.369c0-0.58449-0.47387-1.0583-1.0583-1.0583zm-29.369-1.0583c-1.169 0-2.1167 0.94766-2.1167 2.1167v29.369c0 1.1689 0.94766 2.1167 2.1167 2.1167h29.369c1.1689 0 2.1167-0.94774 2.1167-2.1167v-29.369c0-1.169-0.94774-2.1167-2.1167-2.1167z"
    clip-rule="evenodd" fill-rule="evenodd" stroke-width=".26458"/>
  <g transform="matrix(2.1363 0 0 2.1363 -260.32 -316.59)" fill="none" stroke="#000"
     stroke-linecap="round" stroke-linejoin="round" stroke-width=".12385">
    <path
      d="m125.54 150.85 0.57009 0.70414m-0.80081 8.6246-0.20637-0.25647m0.54434 1.2337-0.38277 0.27481m10.689-5.6289 8e-3 0.13476m-10.091-4.1782 0.11853-0.10372m-0.68439 0.68087h0.0328m-0.0349 7.8437h0.0332m-0.0268-3.6e-4 -0.2032-0.25223m8.8632 0.84455-4e-3 -0.0533m-0.11713 0.14217 0.11854-0.10372m-1e-3 -0.0194 1e-3 0.0194m-0.22225 0.19015-0.23072 0.17921m1.3592-0.0148 0.0219-0.0208m-5e-3 0.036 0.11853-0.12312m-0.71088 0.66177-0.57044-0.70414m0.99413-8.3859-0.19297-0.23848m6e-3 -7e-4h-0.0332m-8.1784-0.94651-0.57115-0.70555m8.3326 11.147-0.57079-0.7052m-10.704-11.203c-0.0307 0.19367-0.0222 0.36935-0.0222 0.57044v11.888l6e-3 0.10689c0.0261 0.24588 0.14428 0.47695 0.32773 0.64241 0.15698 0.14146 0.35772 0.23107 0.56797 0.25329 0.15518 0.0107 0.31092 6e-3 0.46637 6e-3h11.528c0.15576 5e-3 0.31122-2e-3 0.46672-6e-3 0.3175-0.0339 0.60572-0.22154 0.76588-0.49777 0.15734-0.27199 0.13547-0.5588 0.13547-0.8643v-11.888c-6e-3 -0.10795-0.0159-0.2092-0.0497-0.31256-0.11042-0.33832-0.39935-0.59902-0.74754-0.67346-0.18344-0.0392-0.38946-0.0222-0.57079-0.0222h-11.528c-0.18097 0-0.38699-0.0169-0.57044 0.0222-0.27658 0.0593-0.52035 0.23636-0.66181 0.48119-0.0543 0.0938-0.0854 0.19015-0.11324 0.29387m13.144 6.6325c-0.0533 1.0104-0.35489 1.9632-0.86148 2.8363-0.1651 0.28469-0.3676 0.54222-0.57397 0.79798m-0.19861 0.0286c-0.0843 0.0349-0.15875 0.0765-0.22155 0.14464-0.29704 0.32173-0.0896 0.86289 0.34713 0.90276 0.0684 6e-3 0.13829-3.6e-4 0.20426-0.0201 0.066-0.0198 0.12806-0.0526 0.18204-0.0956 0.054-0.043 0.0991-0.0963 0.13335-0.15629 0.0469-0.084 0.0631-0.17039 0.0695-0.26493-5e-3 -0.0706-0.0123-0.13512-0.0392-0.20144-0.11041-0.27481-0.40216-0.38453-0.67556-0.30903m-0.60255 0.75318 0.0173-0.0141 0.22225-0.19015m-10.717-2.5118c-0.21731-0.69003-0.2861-1.4062-0.28963-2.1262 0.0155-0.3496 0.0395-0.69391 0.0991-1.0396 0.15698-0.91546 0.49953-1.7974 1.0012-2.5792 1.2679-1.9773 3.5094-3.2032 5.8586-3.2025 0.70556 3.5e-4 1.4104 0.10795 2.0835 0.31926 0.6731 0.21132 1.3134 0.52529 1.8926 0.92816 0.77258 0.53799 1.433 1.2326 1.9308 2.0313s0.83044 1.6972 0.97296 2.6278c0.14253 0.93027 0.0942 1.8874-0.14181 2.7982-0.20638 0.79728-0.55527 1.5561-1.0255 2.2317-0.4699 0.67593-1.0608 1.2665-1.7364 1.7367-0.57926 0.40287-1.2196 0.7172-1.8926 0.92816-1.9992 0.62724-4.2185 0.30727-5.9584-0.85902-0.48225-0.32314-0.92357-0.70661-1.3106-1.1391-0.46461-0.51858-0.85055-1.1074-1.1409-1.7406-0.14605-0.31856-0.25788-0.64453-0.36301-0.97825m2.6427-6.3842c-4e-3 -0.10689-0.03-0.20779-0.0896-0.29775-0.21872-0.33055-0.72566-0.31256-0.92004 0.0328-0.0339 0.06-0.0561 0.12665-0.0649 0.19509-9e-3 0.0688-5e-3 0.13864 0.013 0.20602 0.0984 0.37712 0.57221 0.5274 0.8703 0.27587 0.10689-0.0907 0.16122-0.2092 0.18697-0.34466m0.24201-0.31045-0.0173 0.0141-0.22189 0.19015m-1.4341 7.0639c0.19438 0.38947 0.40887 0.75495 0.66886 1.1046m0.762 0.85795 4e-3 -0.0667c-0.0116-0.1838-0.0864-0.34855-0.24483-0.45191-0.35172-0.22966-0.83467 0.031-0.83432 0.45191 3.5e-4 0.40005 0.44133 0.66498 0.79446 0.47519 0.16051-0.0861 0.24941-0.23601 0.28081-0.41099m8.7041-9.6976-0.19085 0.13687c-0.13441 0.0967-0.27905 0.1778-0.3563 0.32915-0.0303 0.0586-0.0441 0.11782-0.0557 0.18203m3.5e-4 -2e-3c-0.0106 0.16052 0.0268 0.3115 0.13864 0.43251 0.24483 0.26493 0.69145 0.21237 0.86748-0.10266 0.0466-0.0836 0.0624-0.16933 0.0688-0.26317-5e-3 -0.0716-0.0127-0.13723-0.0402-0.20426-0.09-0.21978-0.32033-0.35737-0.55633-0.33232-0.0963 0.0102-0.17675 0.0476-0.25788 0.0981m1.7515 4.3088c-0.0935-0.9024-0.38312-1.7508-0.83926-2.5333-0.16581-0.28433-0.36795-0.54221-0.57397-0.79798m1.4401 3.7606 2e-3 0.16052-9e-3 0.32914m-6.0421-3.9535c0.21943 8e-3 0.27764 4e-3 0.4953 0.0342 0.49036 0.0677 0.96591 0.23671 1.3889 0.49424 0.49318 0.30022 0.91122 0.71826 1.2114 1.2114 0.25752 0.42298 0.42686 0.89817 0.49424 1.3889 0.0564 0.40992 0.0423 0.82938-0.042 1.2344-0.0674 0.32314-0.17921 0.63711-0.33126 0.92992-0.53693 1.0347-1.5663 1.7618-2.7213 1.9212-0.40993 0.0564-0.82938 0.042-1.2344-0.0423-0.40393-0.0843-0.79304-0.23777-1.1455-0.45226-0.42192-0.25682-0.79022-0.60078-1.0756-1.0047-0.33337-0.47202-0.55104-1.0231-0.63006-1.5956-0.03-0.21767-0.0261-0.27552-0.0339-0.4953 0.0145-0.41769 0.0691-0.81951 0.2099-1.2157 0.36265-1.0178 1.1808-1.8358 2.1985-2.1982 0.39582-0.14112 0.79798-0.1958 1.2157-0.21026m-4.6066-1.1232c0.0593 3.5e-4 0.11254 8e-3 0.1651 0.0385 0.0367 0.0212 0.0688 0.0508 0.0928 0.0861 0.024 0.0356 0.0402 0.0762 0.0469 0.11888 0.0444 0.29457-0.35384 0.45297-0.52211 0.20602-0.0342-0.0501-0.0455-0.10301-0.0501-0.16227 0.0123-0.15805 0.11078-0.26423 0.26741-0.28716m0.79763 0.0441 0.21343-0.1651m-0.45544 0.47555 4e-3 -0.0674-4e-3 -0.0536m-0.55633 8.6872c-0.0586 8e-3 -0.11042 0.0236-0.15804 0.061-0.0339 0.0268-0.0614 0.061-0.0804 0.10019-0.0191 0.0392-0.0289 0.0822-0.0289 0.12594 0 0.27517 0.36795 0.39088 0.52458 0.16333 0.0346-0.0504 0.0462-0.10371 0.0508-0.16333-0.0134-0.17322-0.1337-0.28646-0.30797-0.28716m-0.20955-0.50836c-0.17004-0.236-0.21766-0.29245-0.36795-0.54151-0.33866-0.56268-0.5849-1.1797-0.72637-1.821-0.0949-0.43145-0.12947-0.86219-0.14181-1.3024l9e-3 -0.32915c0.0236-0.28963 0.0236-0.36336 0.0709-0.65052 0.10618-0.64805 0.31856-1.2778 0.62653-1.8577 0.20708-0.39017 0.45967-0.74083 0.73589-1.0837m0.54575 8.2465c-0.0282-0.0861-0.0116-0.0445-0.0497-0.12488m8.6777-8.9478c-0.0586 8e-3 -0.11041 0.0236-0.15804 0.061-0.0339 0.0268-0.0614 0.0614-0.0804 0.10019-0.0191 0.0391-0.0289 0.0822-0.0289 0.12594 0 0.27516 0.36795 0.39052 0.52458 0.16333 0.0346-0.0504 0.0462-0.10371 0.0508-0.16333-0.0138-0.17322-0.13406-0.28646-0.30798-0.28716m0 8.9207c0.0593 3.5e-4 0.11254 8e-3 0.16475 0.0384 0.037 0.0212 0.0688 0.0508 0.0928 0.0861 0.0243 0.0356 0.0406 0.0762 0.0469 0.11888 0.0448 0.29457-0.35348 0.45297-0.52176 0.20603-0.0342-0.0501-0.0455-0.10301-0.0501-0.16228 0.012-0.15805 0.11042-0.26423 0.2674-0.28716"/>
    <path
      d="m133.93 150.14-0.26247-0.16439c-0.043-0.0268-0.0822-0.0543-0.11359-0.0956-0.1584-0.2099-3e-3 -0.51646 0.25823-0.51858h1.8637c0.23847 0 0.48612-0.0258 0.70167 0.0794l0.0586 0.0332c0.20532 0.11359 0.34184 0.34325 0.36795 0.57291l5e-3 0.0878v1.8637c0 0.10866 0.0346 0.35737-0.0303 0.49636-0.0751 0.16193-0.27481 0.23248-0.43533 0.15417-0.0593-0.0289-0.0991-0.0727-0.13617-0.12559l-0.0123-0.0205c-0.0519-0.0829-0.10477-0.16475-0.1591-0.24554l-0.88618-1.0947zm0.79798 2.4539c0.25683 0.35701 0.49001 0.72108 0.67557 1.1211 0.27587 0.59549 0.45367 1.2358 0.52458 1.8881 0.0342 0.31467 0.0363 0.62653 0.0289 0.94262m-2e-3 0.042c-0.0236 0.28998-0.024 0.36371-0.0709 0.65087-0.10654 0.6477-0.31892 1.2774-0.62654 1.8574-0.20708 0.39017-0.45967 0.74083-0.73589 1.0841m-0.49636-8.122c-0.0381-0.0811-0.0215-0.0395-0.0494-0.12488m-0.0459-1.7932 0.0593-0.13229-0.26882-0.16792c-0.0159-0.0102-0.0282-0.0198-0.0413-0.0335-0.10302-0.11359-0.0194-0.30021 0.13299-0.30127h1.8637c0.14322 0 0.35348-0.0205 0.51117 0.0187 0.29034 0.072 0.46038 0.32314 0.47837 0.61101v2.2232c-3.5e-4 0.0198-4e-3 0.0395-0.01 0.0579-0.0497 0.1457-0.24553 0.15981-0.32526 0.0342l-0.17215-0.27482-0.12277 0.0822m0.0776-1.9618-0.91898 0.2787 0.0289 0.0942 0.91864-0.27834zm0.30798 0.64418c-0.0409 0.0614-0.0169 0.0339-0.0716 0.0822l-0.0497 0.0254c-0.13582 9e-3 -0.16792-0.10689-0.26564-0.21695l0.20144-0.17639 0.17885 0.19685 0.0145 0.0437-8e-3 0.0452m0.0561 0.0631c-0.0691 0.10372-0.15664 0.15311-0.28081 0.11818l-0.22508 0.37077-0.0656-0.0741 0.20708-0.33584-0.15946-0.17921-0.28257 0.25153-0.0565-0.0632 0.63253-0.56374 0.22543 0.25329c0.0455 0.0875 0.0353 0.12912 5e-3 0.22225m-1.415-1.004-0.0176-0.0646 5e-3 -0.0691 2e-3 -0.0222c0.0346-0.0572 0.0783-0.1337 0.14534-0.16016 0.10372-0.0413 0.18768 0 0.26247 0.0677l0.0402 0.0607c7e-3 0.10583 0.0106 0.0526-0.0116 0.15981l-0.0258 0.0497-0.0434-0.0395-0.0194-0.0176c0.0342-0.0896 0.0219-0.10513-0.0473-0.16757l-0.0176-0.0127c-0.0758-0.0265-0.11536-0.0201-0.17004 0.0402l-0.0102 0.0194-0.0155 0.03c0.0127 0.10054 0.0751 0.13335 0.12911 0.21484l0.0176 0.0646-7e-3 0.0914-0.0272 0.0723c-0.078 0.0861-0.0339 0.0536-0.13018 0.10124l-0.0229 4e-3c-0.11218 0.019-0.037 0.0166-0.13335 0-0.0818-0.0434-0.13688-0.0931-0.18803-0.17075-0.019-0.10371-3e-3 -0.15593 0.0512-0.24553l0.0628 0.0568c-0.0367 0.0699-0.0247 0.031-0.031 0.11818 0.0487 0.084 0.0152 0.0381 0.11324 0.127 0.12983 0.0593 0.23037-4e-3 0.21132-0.14888-0.0353-0.0614-0.0864-0.0981-0.12206-0.15945"/>
    <path
      d="m125.29 155.22c-0.0586-0.0656-0.11254-0.11747-0.19791-0.14676-0.0991-0.0335-0.1972-0.0254-0.28187 0.0113-0.18591 0.0811-0.30586 0.29986-0.22331 0.51435 0.0543 0.14217 0.16898 0.21414 0.30904 0.25294 0.23107 0.0145 0.44838-0.11535 0.46813-0.36512 6e-3 -0.0748-4e-3 -0.0931-0.0212-0.16475 0.03 0.0123 0.0593 0.0254 0.0885 0.0392l0.0438 0.0219c0.0466-0.0243 0.44238-0.13511 0.3556-0.31432l-0.0529-0.10195c-0.0222-0.0402-0.0547-0.0543-0.097-0.0621-0.0272 2e-3 -0.0335 3.5e-4 -0.0582 0.013l-0.30621 0.15875zm1e-3 -0.29845 0.36865-0.25823c0.2794 0.27058 0.3937 0.61418 0.31503 0.99695h-0.44979c-0.10901 0.19826-0.26705 0.30585-0.49177 0.33302-0.10619-1e-3 -0.20355-0.0152-0.2988-0.0656-0.0688-0.036-0.12982-0.0864-0.17886-0.14675-0.25718-0.31821-0.0967-0.81174 0.29845-0.91758 0.15381-0.0409 0.29774-0.0106 0.43709 0.0582"/>
  </g>
  <circle class="switch" cx="7.2342" cy="15.215" r="3.4396" fill="url(#radialGradient1966-3)"
          stroke-width=".26458"/>
  <circle class="press" cx="29.644" cy="4.7514" r="3.4396" fill="url(#radialGradient1966-35)"
          stroke-width=".26458"/>
</svg>
