<?xml version="1.0" encoding="UTF-8"?>
<svg width="150" height="150" fill="none" version="1.1" viewBox="0 0 150 150" xmlns="http://www.w3.org/2000/svg">
 <path d="m128 15h-105c-3.866 0-7 3.134-7 7v105c0 3.866 3.134 7 7 7h105c3.866 0 7-3.134 7-7v-105c0-3.866-3.134-7-7-7zm-105-4c-6.0751 0-11 4.9249-11 11v105c0 6.075 4.9249 11 11 11h105c6.075 0 11-4.925 11-11v-105c0-6.0751-4.925-11-11-11h-105z" clip-rule="evenodd" fill="#000" fill-rule="evenodd"/>
 <g stroke="#000">
  <rect x="29" y="31" width="92" height="87" rx="4" fill="none" stroke-width="2"/>
  <path d="m79 48-2.568-6.6034c-0.3306-0.8501-1.5334-0.8501-1.864 0l-2.568 6.6034" stroke-linecap="round"/>
  <path d="m72 103 2.568 6.603c0.3306 0.85 1.5334 0.85 1.864 0l2.568-6.603" stroke-linecap="round"/>
 </g>
</svg>
