<?xml version="1.0" encoding="UTF-8" standalone="no"?>
<!-- Created with Inkscape (http://www.inkscape.org/) -->

<svg
   width="8.4637156mm"
   height="8.4613028mm"
   viewBox="0 0 8.4637156 8.4613028"
   version="1.1"
   id="svg1603"
   sodipodi:docname="calendar-clock.svg"
   inkscape:version="1.1.2 (0a00cf5339, 2022-02-04)"
   xmlns:inkscape="http://www.inkscape.org/namespaces/inkscape"
   xmlns:sodipodi="http://sodipodi.sourceforge.net/DTD/sodipodi-0.dtd"
   xmlns="http://www.w3.org/2000/svg"
   xmlns:svg="http://www.w3.org/2000/svg">
  <sodipodi:namedview
     id="namedview1605"
     pagecolor="#505050"
     bordercolor="#eeeeee"
     borderopacity="1"
     inkscape:pageshadow="0"
     inkscape:pageopacity="0"
     inkscape:pagecheckerboard="0"
     inkscape:document-units="mm"
     showgrid="false"
     inkscape:zoom="16.730892"
     inkscape:cx="8.5470635"
     inkscape:cy="11.296469"
     inkscape:window-width="1920"
     inkscape:window-height="1052"
     inkscape:window-x="1920"
     inkscape:window-y="113"
     inkscape:window-maximized="1"
     inkscape:current-layer="layer1" />
  <defs
     id="defs1600" />
  <g
     inkscape:label="Layer 1"
     inkscape:groupmode="layer"
     id="layer1"
     transform="translate(-100.61305,-58.391869)">
    <g
       id="g2768"
       style="fill:#000000;fill-opacity:1">
      <path
         style="fill:#000000;fill-opacity:1;stroke-width:0.00826823"
         d="m 106.96796,66.848168 c 0.006,-0.0024 0.0131,-0.0021 0.0159,6.53e-4 0.003,0.0027 -0.002,0.0047 -0.0109,0.0043 -0.01,-3.97e-4 -0.0116,-0.0024 -0.005,-0.005 z m 1.43609,-0.664078 c 0.0224,-0.02274 0.0426,-0.04134 0.0448,-0.04134 0.002,0 -0.0142,0.0186 -0.0366,0.04134 -0.0224,0.02274 -0.0426,0.04134 -0.0449,0.04134 -0.002,0 0.0142,-0.0186 0.0366,-0.04134 z m -1.47743,-0.04699 c 0.006,-0.0024 0.0131,-0.0021 0.0158,6.53e-4 0.003,0.0027 -0.002,0.0047 -0.0108,0.0043 -0.01,-3.96e-4 -0.0116,-0.0024 -0.005,-0.005 z m 0.93999,-0.424299 c 0.008,-0.0091 0.0168,-0.01654 0.0191,-0.01654 0.002,0 -0.003,0.0074 -0.0108,0.01654 -0.008,0.0091 -0.0168,0.01654 -0.0191,0.01654 -0.002,0 0.003,-0.0074 0.0108,-0.01654 z m 0.0662,-0.06615 c 0.008,-0.0091 0.0168,-0.01654 0.0191,-0.01654 0.002,0 -0.003,0.0074 -0.0108,0.01654 -0.008,0.0091 -0.0168,0.01654 -0.0191,0.01654 -0.002,0 0.003,-0.0074 0.0108,-0.01654 z m -6.67815,-0.733252 c 0.006,-0.0024 0.0131,-0.0021 0.0159,6.52e-4 0.003,0.0027 -0.002,0.0047 -0.0109,0.0043 -0.01,-3.97e-4 -0.0116,-0.0024 -0.005,-0.005 z m 2.73072,-0.0074 c 4e-4,-0.0096 0.002,-0.01159 0.005,-0.005 0.002,0.006 0.002,0.0131 -6.6e-4,0.01585 -0.003,0.0027 -0.005,-0.0021 -0.004,-0.01085 z m 5.08496,-0.165364 c 4e-4,-0.0096 0.002,-0.01159 0.005,-0.005 0.002,0.006 0.002,0.0131 -6.6e-4,0.01585 -0.003,0.0027 -0.005,-0.0021 -0.004,-0.01085 z m -5.1015,-0.0083 c 4e-4,-0.0096 0.002,-0.01159 0.005,-0.005 0.002,0.006 0.002,0.0131 -6.5e-4,0.01585 -0.003,0.0027 -0.005,-0.0021 -0.004,-0.01085 z m -3.15974,-0.02618 -0.02,-0.02274 0.0227,0.02004 c 0.0125,0.01103 0.0227,0.02126 0.0227,0.02274 0,0.0065 -0.007,0.0012 -0.0254,-0.02005 z m 3.68129,-0.0021 c 0,-0.01137 0.002,-0.01602 0.004,-0.01034 0.002,0.0057 0.002,0.01499 0,0.02067 -0.002,0.0057 -0.004,0.001 -0.004,-0.01033 z m 0.71107,-0.03307 c 0,-0.01137 0.002,-0.01602 0.004,-0.01033 0.002,0.0057 0.002,0.01499 0,0.02067 -0.002,0.0057 -0.004,0.001 -0.004,-0.01033 z m -6.5e-4,-0.219797 c 4e-4,-0.0096 0.002,-0.01159 0.005,-0.005 0.002,0.006 0.002,0.0131 -6.6e-4,0.01585 -0.003,0.0027 -0.005,-0.0021 -0.004,-0.01085 z m -0.71042,-0.03652 c 0,-0.01137 0.002,-0.01602 0.004,-0.01034 0.002,0.0057 0.002,0.01499 0,0.02067 -0.002,0.0057 -0.004,0.001 -0.004,-0.01033 z m 3.86888,0.0034 c 4e-4,-0.0096 0.002,-0.01159 0.005,-0.005 0.002,0.006 0.002,0.0131 -6.5e-4,0.01585 -0.003,0.0027 -0.005,-0.0021 -0.004,-0.01085 z m -4.39043,-0.03307 c 4e-4,-0.0096 0.002,-0.01159 0.005,-0.005 0.002,0.006 0.002,0.0131 -6.5e-4,0.01585 -0.003,0.0027 -0.005,-0.0021 -0.004,-0.01085 z m 5.1015,-0.0083 c 4e-4,-0.0096 0.002,-0.01159 0.005,-0.005 0.002,0.006 0.002,0.0131 -6.6e-4,0.01585 -0.003,0.0027 -0.005,-0.0021 -0.004,-0.01085 z m -0.58048,-1.3491 c -0.0103,-0.01311 -0.01,-0.01341 0.003,-0.0031 0.0138,0.0108 0.0182,0.01759 0.0113,0.01759 -0.002,0 -0.008,-0.0065 -0.0145,-0.01447 z m -3.39719,-0.02172 c 0,-0.0017 0.007,-0.0082 0.0145,-0.01447 0.0131,-0.01028 0.0134,-0.01 0.003,0.0031 -0.0108,0.01377 -0.0176,0.01815 -0.0176,0.01135 z m 1.57716,-0.02716 c 0.006,-0.0023 0.015,-0.0023 0.0207,0 0.006,0.0023 0.001,0.0042 -0.0103,0.0042 -0.0114,0 -0.016,-0.0019 -0.0103,-0.0042 z m 0.20671,0 c 0.006,-0.0023 0.015,-0.0023 0.0207,0 0.006,0.0023 0.001,0.0042 -0.0103,0.0042 -0.0114,0 -0.016,-0.0019 -0.0103,-0.0042 z m -1.66811,-0.0886 c 0,-0.0017 0.007,-0.0082 0.0145,-0.01447 0.0131,-0.01028 0.0134,-0.01 0.003,0.0031 -0.0108,0.01377 -0.0176,0.01815 -0.0176,0.01135 z m 1.42833,-0.622471 c 0.006,-0.0023 0.015,-0.0023 0.0207,0 0.006,0.0023 0.001,0.0042 -0.0103,0.0042 -0.0114,0 -0.016,-0.0019 -0.0103,-0.0042 z m 0.27285,0 c 0.006,-0.0023 0.015,-0.0023 0.0207,0 0.006,0.0023 10e-4,0.0042 -0.0103,0.0042 -0.0114,0 -0.016,-0.0019 -0.0103,-0.0042 z m 0.13281,-0.512803 c 0.006,-0.0024 0.0131,-0.0021 0.0159,6.53e-4 0.003,0.0027 -0.002,0.0047 -0.0109,0.0043 -0.01,-3.97e-4 -0.0116,-0.0024 -0.005,-0.005 z m -0.42995,-0.0083 c 0.006,-0.0024 0.0131,-0.0021 0.0159,6.52e-4 0.003,0.0027 -0.002,0.0047 -0.0109,0.0043 -0.01,-3.97e-4 -0.0116,-0.0024 -0.005,-0.005 z m 0.33022,1.72e-4 c 0.006,-0.0023 0.015,-0.0023 0.0207,0 0.006,0.0023 10e-4,0.0042 -0.0103,0.0042 -0.0114,0 -0.016,-0.0019 -0.0103,-0.0042 z m -0.51818,-0.726951 c 3.9e-4,-0.0096 0.002,-0.01159 0.005,-0.005 0.002,0.006 0.002,0.0131 -6.5e-4,0.01585 -0.003,0.0027 -0.005,-0.0021 -0.004,-0.01085 z m -1.43261,-0.786307 c 0.006,-0.0024 0.0131,-0.0021 0.0159,6.52e-4 0.003,0.0027 -0.002,0.0047 -0.0109,0.0043 -0.01,-3.97e-4 -0.0116,-0.0024 -0.005,-0.005 z m 0.21239,-0.07703 c 0.008,-0.0091 0.0168,-0.01654 0.0191,-0.01654 0.002,0 -0.003,0.0074 -0.0108,0.01654 -0.008,0.0091 -0.0168,0.01654 -0.0191,0.01654 -0.002,0 0.003,-0.0074 0.0108,-0.01654 z m -3.26878,-0.165365 c 0,-0.01137 0.002,-0.01602 0.004,-0.01033 0.002,0.0057 0.002,0.01499 0,0.02067 -0.002,0.0057 -0.004,10e-4 -0.004,-0.01034 z m 0.5209,0 c 0,-0.01137 0.002,-0.01602 0.004,-0.01033 0.002,0.0057 0.002,0.01499 0,0.02067 -0.002,0.0057 -0.004,10e-4 -0.004,-0.01034 z m 2.2466,-0.84956 c -0.0103,-0.01311 -0.01,-0.01341 0.003,-0.0031 0.0138,0.0108 0.0182,0.01759 0.0113,0.01759 -0.002,0 -0.008,-0.0065 -0.0145,-0.01447 z"
         id="path2780" />
      <path
         style="fill:#000000;fill-opacity:1;stroke-width:0.00826823"
         d="m 105.0833,66.103474 c -0.0103,-0.01311 -0.01,-0.01341 0.003,-0.0031 0.008,0.0062 0.0145,0.01275 0.0145,0.01447 0,0.0068 -0.007,0.0024 -0.0176,-0.01135 z m 0.57538,-0.425813 -0.041,-0.04341 0.0434,0.04103 c 0.0403,0.03813 0.0472,0.04579 0.041,0.04579 -10e-4,0 -0.0208,-0.01953 -0.0434,-0.04341 z m 2.24061,-2.24069 -0.0327,-0.03514 0.0351,0.03268 c 0.0327,0.0304 0.0389,0.0376 0.0327,0.0376 -10e-4,0 -0.0172,-0.01581 -0.0351,-0.03514 z m -2.74052,-0.498161 c 0.0247,-0.02501 0.0468,-0.04547 0.049,-0.04547 0.002,0 -0.0161,0.02046 -0.0408,0.04547 -0.0247,0.02501 -0.0468,0.04548 -0.049,0.04548 -0.002,0 0.0161,-0.02046 0.0408,-0.04548 z m 3.17394,-0.06821 c -0.0103,-0.01311 -0.01,-0.01341 0.003,-0.0031 0.008,0.0062 0.0145,0.01275 0.0145,0.01447 0,0.0068 -0.007,0.0024 -0.0176,-0.01135 z m -6.96493,-1.961637 c 0.008,-0.0091 0.0168,-0.01654 0.0191,-0.01654 0.002,0 -0.003,0.0074 -0.0108,0.01654 -0.008,0.0091 -0.0168,0.01654 -0.0191,0.01654 -0.002,0 0.003,-0.0074 0.0108,-0.01654 z m -0.66559,-1.706377 c 0,-0.0017 0.007,-0.0082 0.0145,-0.01447 0.0131,-0.01028 0.0134,-0.01 0.003,0.0031 -0.0108,0.01377 -0.0176,0.01815 -0.0176,0.01135 z"
         id="path2778" />
      <path
         style="fill:#000000;fill-opacity:1;stroke-width:0.00826823"
         d="m 106.62069,66.848168 c 0.006,-0.0024 0.0131,-0.0021 0.0159,6.53e-4 0.003,0.0027 -0.002,0.0047 -0.0108,0.0043 -0.01,-3.97e-4 -0.0116,-0.0024 -0.005,-0.005 z m 0.31419,0 c 0.006,-0.0024 0.0131,-0.0021 0.0158,6.53e-4 0.003,0.0027 -0.002,0.0047 -0.0108,0.0043 -0.01,-3.97e-4 -0.0116,-0.0024 -0.005,-0.005 z m -0.1863,-0.703239 c 0.0217,-0.0017 0.0552,-0.0017 0.0744,5e-5 0.0192,0.0017 0.001,0.0031 -0.0395,0.0031 -0.0409,-2.5e-5 -0.0566,-0.0014 -0.0349,-0.0032 z m -4.79103,-1.232079 c 0.37439,-0.0012 0.98458,-0.0012 1.35599,0 0.3714,0.0012 0.0651,0.0022 -0.68072,0.0022 -0.74579,0 -1.04967,-9.74e-4 -0.67527,-0.0022 z m 7.11274,-0.19706 c 4e-4,-0.0096 0.002,-0.01159 0.005,-0.005 0.002,0.006 0.002,0.0131 -6.6e-4,0.01585 -0.003,0.0027 -0.005,-0.0021 -0.004,-0.01085 z m -4.57964,-0.04892 c 1.7e-4,-0.01364 0.002,-0.01822 0.004,-0.01018 0.002,0.008 0.002,0.01921 -3.1e-4,0.0248 -0.002,0.0056 -0.004,-9.84e-4 -0.004,-0.01463 z m -0.52776,-0.107487 c 3e-5,-0.04548 0.001,-0.06302 0.003,-0.039 0.002,0.02403 0.002,0.06123 -4e-5,0.08268 -0.002,0.02145 -0.003,0.0018 -0.003,-0.04368 z m 4.40684,0.0041 c 0,-0.03865 10e-4,-0.05447 0.003,-0.03514 0.002,0.01933 0.002,0.05095 0,0.07028 -0.002,0.01933 -0.003,0.0035 -0.003,-0.03514 z m -1.85111,-0.44235 c 0,-0.254662 0.001,-0.360036 0.002,-0.234165 0.001,0.125871 0.001,0.33423 0,0.463021 -10e-4,0.12879 -0.002,0.02581 -0.002,-0.228856 z m -2.02797,0.338997 c 1.7e-4,-0.01364 0.002,-0.01822 0.004,-0.01018 0.002,0.008 0.002,0.01921 -3.1e-4,0.02481 -0.002,0.0056 -0.004,-9.84e-4 -0.004,-0.01463 z m 4.58029,-0.05374 c 0,-0.01137 0.002,-0.01602 0.004,-0.01034 0.002,0.0057 0.002,0.01499 0,0.02067 -0.002,0.0057 -0.004,0.001 -0.004,-0.01034 z m -5.10215,-0.04616 c 4e-4,-0.0096 0.002,-0.01159 0.005,-0.005 0.002,0.006 0.002,0.0131 -6.5e-4,0.01585 -0.003,0.0027 -0.005,-0.0021 -0.004,-0.01085 z m 3.19295,-0.0675 c 0.0625,-0.0014 0.16485,-0.0014 0.22738,0 0.0625,0.0014 0.0114,0.0026 -0.11369,0.0026 -0.12505,0 -0.17621,-0.0011 -0.11369,-0.0026 z m -5.84365,-1.759085 c 0,-0.836745 9.7e-4,-1.180275 0.002,-0.763401 0.001,0.416875 0.001,1.101484 0,1.521355 -10e-4,0.41987 -0.002,0.07879 -0.002,-0.757954 z m 5.32741,0.44497 c 0.006,-0.0024 0.0131,-0.0021 0.0158,6.52e-4 0.003,0.0027 -0.002,0.0047 -0.0108,0.0043 -0.01,-3.97e-4 -0.0116,-0.0024 -0.005,-0.005 z m 0.26458,0 c 0.006,-0.0024 0.0131,-0.0021 0.0159,6.52e-4 0.003,0.0027 -0.002,0.0047 -0.0108,0.0043 -0.01,-3.97e-4 -0.0116,-0.0024 -0.005,-0.005 z m -0.23616,-0.711119 c 0.008,-0.0021 0.021,-0.0021 0.0289,0 0.008,0.0021 10e-4,0.0038 -0.0145,0.0038 -0.0159,0 -0.0224,-0.0017 -0.0145,-0.0038 z m 0.19017,0 c 0.008,-0.0021 0.021,-0.0021 0.0289,0 0.008,0.0021 0.001,0.0038 -0.0145,0.0038 -0.0159,0 -0.0224,-0.0017 -0.0145,-0.0038 z m 0.2748,-1.672751 c 0,-0.643475 9.8e-4,-0.906715 0.002,-0.584977 0.001,0.321737 0.001,0.848217 0,1.169954 -0.001,0.321738 -0.002,0.0585 -0.002,-0.584977 z m -0.16266,1.151904 c 0.006,-0.0024 0.0131,-0.0021 0.0158,6.52e-4 0.003,0.0027 -0.002,0.0047 -0.0109,0.0043 -0.01,-3.97e-4 -0.0116,-0.0024 -0.005,-0.005 z m -0.22376,-0.0087 c 0.0193,-0.0017 0.051,-0.0017 0.0703,0 0.0193,0.0017 0.004,0.0032 -0.0351,0.0032 -0.0387,0 -0.0545,-0.0014 -0.0351,-0.0032 z m -1.99504,-2.110613 c 0,-0.206912 0.001,-0.291558 0.002,-0.188102 0.001,0.103456 0.001,0.272748 0,0.376205 -10e-4,0.103456 -0.002,0.01881 -0.002,-0.188103 z m 1.05808,-0.802018 c 0,-0.106867 10e-4,-0.150585 0.003,-0.09715 10e-4,0.05343 10e-4,0.14087 0,0.194304 -0.001,0.05343 -0.003,0.0097 -0.003,-0.09715 z"
         id="path2776" />
      <path
         style="fill:#000000;fill-opacity:1;stroke-width:0.00826823"
         d="m 105.20346,66.223364 -0.0158,-0.0186 0.0186,0.01575 c 0.0102,0.0087 0.0186,0.01703 0.0186,0.0186 0,0.0066 -0.007,0.0017 -0.0214,-0.01575 z m -0.091,-0.09095 -0.0157,-0.0186 0.0186,0.01575 c 0.0175,0.0148 0.0224,0.02146 0.0158,0.02146 -0.002,0 -0.01,-0.0084 -0.0186,-0.0186 z m 0.4917,-0.508496 c -0.0103,-0.01311 -0.01,-0.01341 0.003,-0.0031 0.008,0.0062 0.0145,0.01275 0.0145,0.01447 0,0.0068 -0.007,0.0024 -0.0176,-0.01135 z m 2.05984,-0.865084 c 0,-0.0017 0.007,-0.0082 0.0145,-0.01447 0.0131,-0.01028 0.0134,-0.01 0.003,0.0031 -0.0108,0.01377 -0.0176,0.01815 -0.0176,0.01135 z m -6.29704,-0.602526 -0.0158,-0.0186 0.0186,0.01575 c 0.0175,0.0148 0.0224,0.02146 0.0157,0.02146 -0.002,0 -0.01,-0.0084 -0.0186,-0.0186 z m 5.60145,-0.665593 c -0.0103,-0.01311 -0.01,-0.01341 0.003,-0.0031 0.008,0.0062 0.0145,0.01275 0.0145,0.01447 0,0.0068 -0.007,0.0024 -0.0176,-0.01135 z m -1.30946,-0.05168 c 0.008,-0.0091 0.0168,-0.01654 0.0191,-0.01654 0.002,0 -0.003,0.0074 -0.0108,0.01654 -0.008,0.0091 -0.0168,0.01654 -0.0191,0.01654 -0.002,0 0.003,-0.0074 0.0108,-0.01654 z m 2.19416,-0.04754 c -0.0103,-0.01311 -0.01,-0.01341 0.003,-0.0031 0.008,0.0062 0.0145,0.01275 0.0145,0.01447 0,0.0068 -0.007,0.0024 -0.0176,-0.01135 z m 0.54652,-0.454752 -0.0535,-0.05581 0.0558,0.05351 c 0.0307,0.02943 0.0558,0.05454 0.0558,0.05581 0,0.0061 -0.008,-0.0017 -0.0581,-0.0535 z m -1.36894,-3.741374 -0.0158,-0.0186 0.0186,0.01575 c 0.0102,0.0087 0.0186,0.01703 0.0186,0.0186 0,0.0066 -0.007,0.0017 -0.0215,-0.01575 z m -1.68179,-0.72039 c 0,-0.0017 0.007,-0.0082 0.0145,-0.01447 0.0131,-0.01028 0.0134,-0.01 0.003,0.0031 -0.0108,0.01377 -0.0176,0.01815 -0.0176,0.01135 z"
         id="path2774" />
      <path
         style="fill:#000000;fill-opacity:1;stroke-width:0.00826823"
         d="m 106.64498,66.84834 c 0.006,-0.0023 0.015,-0.0023 0.0207,0 0.006,0.0023 0.001,0.0042 -0.0103,0.0042 -0.0114,0 -0.016,-0.0019 -0.0103,-0.0042 z m 0.25631,0 c 0.006,-0.0023 0.015,-0.0023 0.0207,0 0.006,0.0023 0.001,0.0042 -0.0103,0.0042 -0.0114,0 -0.016,-0.0019 -0.0103,-0.0042 z m -0.21445,-0.702971 c 0.006,-0.0024 0.0131,-0.0021 0.0159,6.52e-4 0.003,0.0027 -0.002,0.0047 -0.0109,0.0043 -0.01,-3.97e-4 -0.0116,-0.0024 -0.005,-0.005 z m 0.18138,1.72e-4 c 0.006,-0.0023 0.015,-0.0023 0.0207,0 0.006,0.0023 0.001,0.0042 -0.0103,0.0042 -0.0114,0 -0.016,-0.0019 -0.0103,-0.0042 z m 0.0744,-1.323635 c 0.10573,-0.0013 0.27874,-0.0013 0.38447,0 0.10573,0.0013 0.0192,0.0024 -0.19224,0.0024 -0.21146,0 -0.29796,-0.0011 -0.19223,-0.0024 z m 2.1283,-0.142634 c 0,-0.01137 0.002,-0.01602 0.004,-0.01033 0.002,0.0057 0.002,0.01499 0,0.02067 -0.002,0.0057 -0.004,0.001 -0.004,-0.01033 z m -5.10946,-0.02067 c 1.7e-4,-0.01364 0.002,-0.01822 0.004,-0.01018 0.002,0.008 0.002,0.01921 -3e-4,0.0248 -0.002,0.0056 -0.004,-9.84e-4 -0.004,-0.01463 z m 4.40666,-0.0124 c 0,-0.01137 0.002,-0.01602 0.004,-0.01033 0.002,0.0057 0.002,0.01499 0,0.02067 -0.002,0.0057 -0.004,0.001 -0.004,-0.01033 z m -3.87608,-0.08682 c 2e-5,-0.04548 10e-4,-0.06302 0.003,-0.039 0.002,0.02403 0.002,0.06123 -4e-5,0.08268 -0.002,0.02145 -0.003,0.0018 -0.003,-0.04368 z m 0.70226,0.0041 c 0,-0.02501 0.002,-0.03524 0.003,-0.02274 0.002,0.01251 0.002,0.03297 0,0.04547 -0.002,0.01251 -0.003,0.0023 -0.003,-0.02274 z m 3.17382,-0.09095 c 0,-0.01137 0.002,-0.01602 0.004,-0.01033 0.002,0.0057 0.002,0.01499 0,0.02067 -0.002,0.0057 -0.004,0.001 -0.004,-0.01034 z m -4.40666,-0.0124 c 1.7e-4,-0.01364 0.002,-0.01822 0.004,-0.01018 0.002,0.008 0.002,0.01921 -3e-4,0.02481 -0.002,0.0056 -0.004,-9.84e-4 -0.004,-0.01463 z m 5.10946,-0.02067 c 0,-0.01137 0.002,-0.01602 0.004,-0.01033 0.002,0.0057 0.002,0.01499 0,0.02067 -0.002,0.0057 -0.004,10e-4 -0.004,-0.01034 z m -4.57298,-0.07924 c 4e-4,-0.0096 0.002,-0.01159 0.005,-0.005 0.002,0.006 0.002,0.0131 -6.6e-4,0.01585 -0.003,0.0027 -0.005,-0.0021 -0.004,-0.01085 z m 2.54972,-0.387918 c 0,-0.177353 0.001,-0.24873 0.002,-0.158615 10e-4,0.09011 10e-4,0.235222 0,0.322461 -0.001,0.08724 -0.002,0.01351 -0.002,-0.163846 z m -0.27858,-1.002169 c 0.0103,-0.002 0.0252,-0.0019 0.0331,1.67e-4 0.008,0.0021 -5.1e-4,0.0037 -0.0187,0.0036 -0.0182,-9.2e-5 -0.0247,-0.0018 -0.0144,-0.0038 z m 0.20713,-0.694331 c 0.006,-0.0024 0.0131,-0.0021 0.0158,6.52e-4 0.003,0.0027 -0.002,0.0047 -0.0109,0.0043 -0.01,-3.97e-4 -0.0116,-0.0024 -0.005,-0.005 z m -0.22376,-0.0087 c 0.0193,-0.0017 0.051,-0.0017 0.0703,0 0.0193,0.0017 0.004,0.0032 -0.0351,0.0032 -0.0387,0 -0.0545,-0.0014 -0.0351,-0.0032 z m -0.0701,-0.528842 c 0.008,-0.0021 0.0192,-0.002 0.0248,3.07e-4 0.006,0.0023 -9.9e-4,0.004 -0.0146,0.0038 -0.0136,-1.68e-4 -0.0182,-0.002 -0.0102,-0.0041 z m 0.18191,0 c 0.008,-0.0021 0.0192,-0.002 0.0248,3.07e-4 0.006,0.0023 -9.8e-4,0.004 -0.0146,0.0038 -0.0136,-1.68e-4 -0.0182,-0.002 -0.0102,-0.0041 z m -4.18389,-0.885172 c 0.65826,-0.0012 1.7354,-0.0012 2.39366,0 0.65825,0.0012 0.11968,0.0021 -1.19683,0.0021 -1.31651,0 -1.85508,-9.55e-4 -1.19683,-0.0021 z m 2.60638,-1.544091 c 0,-0.377445 0.001,-0.533063 0.002,-0.345817 0.001,0.187245 0.001,0.496063 0,0.686263 -10e-4,0.190199 -0.002,0.037 -0.002,-0.340446 z m -4.13542,-0.217036 c 0.11742,-0.0013 0.30717,-0.0013 0.42168,2e-6 0.11451,0.0013 0.0184,0.0024 -0.21349,0.0024 -0.23192,-2e-6 -0.32561,-0.0011 -0.20819,-0.0024 z m 2.30212,-3e-6 c 0.21033,-0.0012 0.55449,-0.0012 0.76481,0 0.21033,0.0012 0.0383,0.0022 -0.3824,0.0022 -0.42065,0 -0.59273,-0.001 -0.38241,-0.0022 z m 2.67123,2e-6 c 0.12879,-0.0013 0.33715,-0.0013 0.46302,2e-6 0.12587,0.0013 0.0205,0.0023 -0.23417,0.0023 -0.25466,-1e-6 -0.35764,-0.0011 -0.22885,-0.0023 z"
         id="path2772" />
      <path
         style="fill:#000000;fill-opacity:1;stroke-width:0.00826823"
         d="m 106.5933,66.84535 c -0.86551,-0.07727 -1.6059,-0.62333 -1.93355,-1.426071 -0.10656,-0.261065 -0.15328,-0.495335 -0.15995,-0.802019 -0.005,-0.213166 0.005,-0.342535 0.0391,-0.510829 0.14079,-0.700272 0.60543,-1.297529 1.2524,-1.609844 0.3154,-0.152259 0.63227,-0.223554 0.99213,-0.223226 0.22799,2.07e-4 0.3735,0.01785 0.57888,0.07017 0.37619,0.09584 0.72817,0.294877 1.01565,0.574336 0.3789,0.368317 0.61113,0.829677 0.67853,1.347997 0.0384,0.295366 0.0192,0.591411 -0.0573,0.882669 -0.11085,0.422153 -0.35708,0.826728 -0.67592,1.110584 -0.3595,0.320062 -0.77531,0.512167 -1.24248,0.574034 -0.12013,0.01591 -0.37462,0.02228 -0.4875,0.0122 z m 0.43824,-0.714243 c 0.25202,-0.04256 0.49485,-0.14464 0.69451,-0.29194 0.0956,-0.07053 0.26679,-0.24174 0.33716,-0.337206 0.23171,-0.314338 0.34395,-0.71929 0.30315,-1.093799 -0.0558,-0.512149 -0.33796,-0.952764 -0.77937,-1.216979 -0.318,-0.190351 -0.72994,-0.261622 -1.09971,-0.190265 -0.27415,0.05291 -0.55316,0.191423 -0.7573,0.375962 -0.15302,0.138333 -0.26439,0.282193 -0.35535,0.459033 -0.37407,0.727255 -0.14044,1.606287 0.5466,2.056608 0.196,0.128471 0.46023,0.223253 0.69688,0.249976 0.0908,0.01026 0.32316,0.0039 0.41343,-0.01139 z m -0.36905,-1.338268 c -0.036,-0.01865 -0.0618,-0.03973 -0.0835,-0.06821 -0.0566,-0.07434 -0.0559,-0.06699 -0.0559,-0.608784 0,-0.468427 6.1e-4,-0.487641 0.0168,-0.530949 0.0224,-0.05994 0.0701,-0.112238 0.1291,-0.141678 0.0413,-0.02062 0.058,-0.02414 0.11453,-0.02414 0.0497,-6e-6 0.0757,0.0043 0.10481,0.01751 0.0516,0.02339 0.10915,0.0777 0.13249,0.125085 0.0187,0.03796 0.0191,0.04435 0.0232,0.385866 l 0.004,0.347265 0.25631,0.0041 c 0.23952,0.0039 0.25882,0.0053 0.29454,0.02181 0.0548,0.02535 0.0998,0.0693 0.12729,0.124506 0.0204,0.04099 0.0239,0.05764 0.0239,0.114137 -1e-4,0.08669 -0.0221,0.138233 -0.0827,0.193592 -0.0746,0.06821 -0.0638,0.06686 -0.53739,0.06686 h -0.41535 z m -5.45594,0.112217 c -0.11495,-0.01932 -0.25151,-0.08144 -0.34061,-0.154935 -0.10553,-0.08704 -0.19256,-0.22372 -0.23201,-0.364371 l -0.0186,-0.06615 -0.002,-2.447008 c -0.001,-1.640385 6.1e-4,-2.462127 0.006,-2.492871 0.0198,-0.107234 0.0882,-0.196752 0.18836,-0.246236 l 0.063,-0.03114 h 0.47656 0.47656 l 0.033,0.02285 c 0.0181,0.01257 0.042,0.03861 0.053,0.05788 l 0.0201,0.03503 0.004,0.413411 c 0.005,0.473295 0.002,0.454562 0.0822,0.532819 0.0742,0.07225 0.17973,0.09422 0.27727,0.05773 0.0562,-0.02102 0.12181,-0.08235 0.14738,-0.137716 l 0.0182,-0.03942 0.004,-0.727604 0.004,-0.727604 0.0217,-0.04619 c 0.0456,-0.09718 0.13136,-0.151662 0.23879,-0.151662 0.10743,0 0.19321,0.05449 0.23878,0.151662 0.0214,0.04562 0.0217,0.04883 0.024,0.261165 0.001,0.127095 0.006,0.224104 0.0112,0.237308 0.005,0.01228 0.0187,0.02903 0.0307,0.03721 0.0206,0.01399 0.0691,0.01512 0.81565,0.01901 0.78125,0.0041 0.79421,0.0044 0.82258,0.02107 0.0159,0.0093 0.04,0.03288 0.0537,0.05237 l 0.0249,0.03544 0.004,0.414781 0.004,0.414782 0.0197,0.04349 c 0.0266,0.05891 0.1,0.126334 0.15769,0.14498 0.13131,0.04241 0.26956,-0.01861 0.32776,-0.144649 l 0.024,-0.05209 0.004,-0.727604 0.004,-0.727604 0.019,-0.0386 c 0.0233,-0.04738 0.0809,-0.101691 0.13249,-0.125085 0.0291,-0.01317 0.0551,-0.01752 0.10481,-0.01751 0.0565,7e-6 0.0732,0.0035 0.11453,0.02414 0.059,0.02944 0.10668,0.08174 0.1291,0.141678 0.0153,0.04078 0.0168,0.06422 0.0169,0.253397 1.3e-4,0.224267 0.002,0.23427 0.0439,0.265543 0.0229,0.01704 0.0318,0.0174 0.52503,0.02147 l 0.5017,0.0041 0.0543,0.0266 c 0.0688,0.03364 0.13193,0.09933 0.16723,0.173836 l 0.0265,0.05588 0.002,1.20206 0.002,1.202059 -0.0311,-0.0051 c -0.0171,-0.0028 -0.0968,-0.0096 -0.17708,-0.01501 -0.13897,-0.0094 -0.35706,-0.0024 -0.46382,0.01503 l -0.031,0.0051 v -0.381686 c 0,-0.326363 -0.002,-0.386141 -0.0128,-0.412426 -0.0163,-0.03899 -0.0483,-0.0728 -0.0905,-0.09558 l -0.0331,-0.01785 h -2.41433 c -2.31912,0 -2.41586,5.96e-4 -2.4535,0.01512 -0.0473,0.01826 -0.0915,0.06695 -0.10482,0.115451 -0.007,0.02583 -0.009,0.42891 -0.007,1.564416 l 0.002,1.529622 0.0232,0.03946 c 0.0128,0.0217 0.0385,0.04961 0.0573,0.06201 l 0.0341,0.02255 1.27705,0.0021 1.27705,0.0021 -0.005,0.03093 c -0.003,0.01701 -0.01,0.09514 -0.0151,0.173619 -0.008,0.113517 -0.008,0.17353 4.1e-4,0.293522 0.006,0.08296 0.0125,0.162923 0.015,0.177703 l 0.005,0.02687 -1.37966,-0.0011 c -0.75882,-6.19e-4 -1.38897,-0.0027 -1.40034,-0.0046 z"
         id="path2770" />
    </g>
  </g>
</svg>
