<?xml version="1.0" encoding="UTF-8"?>
<svg width="100" height="100" version="1.1" viewBox="0 0 100 100" xmlns="http://www.w3.org/2000/svg">
 <g transform="matrix(1.3333 0 0 -1.3333 0 213.33)">
  <g transform="scale(.1)">
   <path d="m140.98 1283.7v47.251h-137.23v-213.08h137.23v47.254h-77.946v38.519h68.915v44.842h-68.915v35.212zm96.605 47.251h-59.288v-213.08h125.8v44.848h-66.507zm287.89 0h-70.723l-67.716-92.093v92.093h-59.286v-213.08h59.286v94.201l67.111-94.201h71.327l-82.46 108.95zm112.45 3.3077c-19.862 0-38.113-4.6631-54.77-13.992-16.658-9.3304-29.795-22.316-39.426-38.972-9.6266-16.661-14.442-35.41-14.442-56.279 0-20.875 4.8156-39.625 14.442-56.277 9.6312-16.658 22.769-29.645 39.426-38.973 16.658-9.3286 34.908-13.997 54.77-13.997 19.867 0 38.071 4.6686 54.624 13.997 16.552 9.3286 29.644 22.316 39.275 38.973 9.6311 16.653 14.442 35.403 14.442 56.277 0 20.869-4.7698 39.617-14.291 56.279-9.5259 16.656-22.572 29.642-39.124 38.972-16.552 9.3286-34.867 13.992-54.926 13.992m0-54.769c15.051 0 26.834-4.8637 35.362-14.598 8.5326-9.7328 12.79-23.026 12.79-39.874 0-16.449-4.3166-29.598-12.941-39.428-8.6195-9.8221-20.356-14.743-35.21-14.743-15.046 0-26.889 4.9208-35.508 14.743-8.6241 9.8293-12.945 22.979-12.945 39.428 0 16.849 4.3212 30.142 12.945 39.874 8.6195 9.7346 20.462 14.598 35.508 14.598"/>
  </g>
 </g>
</svg>
