<?xml version="1.0" encoding="UTF-8"?>
<svg width="150" height="150" version="1.1" viewBox="0 0 150 150" xmlns="http://www.w3.org/2000/svg">
<style type="text/css">
.press {
    animation: press 5s infinite;
}

@keyframes press {
    0%, 5%, 15%, 25%, 35%, 100% {
        opacity: 0;
    }
    10%, 20%, 30% {
        opacity: 0.75;
    }
}
</style>
 <defs>
  <radialGradient id="radialGradient1966" cx="65.5" cy="109.5" r="13" gradientTransform="translate(36.5 -72.5)" gradientUnits="userSpaceOnUse">
    <stop stop-color="#0078CC" offset="0"/>
    <stop stop-color="#0078CC" offset=".6"/>
    <stop stop-color="#0078CC" stop-opacity="0" offset="1"/>
  </radialGradient>
 </defs>
 <path d="m37 14v122h76v-122h-76zm-1-4c-1.6569 0-3 1.3431-3 3v124c0 1.657 1.3431 3 3 3h78c1.657 0 3-1.343 3-3v-124c0-1.6569-1.343-3-3-3h-78z" clip-rule="evenodd" fill-rule="evenodd"/>
 <line x1="34" x2="95" y1="37" y2="37" fill="none" stroke="#000" stroke-width="2"/>
 <line x1="108" x2="115" y1="37" y2="37" fill="none" stroke="#000" stroke-width="2"/>
 <path d="m75 85c0.8862 0 1.7544-0.0768 2.5983-0.2242v-1.7758c0-0.6065-0.4917-1.0982-1.0982-1.0982h-3c-0.6065 0-1.0982 0.4917-1.0982 1.0982v1.7758c0.8439 0.1474 1.712 0.2242 2.5981 0.2242zm3.4019-2v1.6126c6.6455-1.541 11.598-7.4984 11.598-14.613s-4.9526-13.072-11.598-14.613v1.6126c0 1.0503-0.8515 1.9018-1.9018 1.9018h-3c-1.0503 0-1.9018-0.8515-1.9018-1.9018v-1.6126c-6.6456 1.5409-11.598 7.4983-11.598 14.613s4.9527 13.072 11.598 14.613v-1.6126c0-1.0503 0.8515-1.9018 1.9018-1.9018h3c1.0503 0 1.9018 0.8515 1.9018 1.9018zm-6-27.776c0.8439-0.1474 1.712-0.2242 2.5981-0.2242 0.8862 0 1.7544 0.0768 2.5983 0.2242v1.7758c0 0.6065-0.4917 1.0982-1.0982 1.0982h-3c-0.6065 0-1.0982-0.4917-1.0982-1.0982v-1.7758zm2.5981 30.776c8.8366 0 16-7.1634 16-16s-7.1634-16-16-16-16 7.1634-16 16 7.1634 16 16 16zm-4-16.25c0 1.5188-1.2312 2.75-2.75 2.75s-2.75-1.2312-2.75-2.75 1.2312-2.75 2.75-2.75 2.75 1.2312 2.75 2.75zm10.75 2.75c1.5188 0 2.75-1.2312 2.75-2.75s-1.2312-2.75-2.75-2.75-2.75 1.2312-2.75 2.75 1.2312 2.75 2.75 2.75z" clip-rule="evenodd" fill-rule="evenodd"/>
 <path d="m97 60.393c-3.705-8.4727-12.161-14.393-22-14.393s-18.295 5.9205-22 14.393" fill="none" stroke="#000" stroke-linecap="round"/>
 <path d="m75 127c0.8862 0 1.7544-0.077 2.5983-0.224v-1.776c0-0.607-0.4917-1.098-1.0982-1.098h-3c-0.6065 0-1.0982 0.491-1.0982 1.098v1.776c0.8439 0.147 1.712 0.224 2.5981 0.224zm3.4019-2v1.613c6.6455-1.541 11.598-7.499 11.598-14.613s-4.9526-13.072-11.598-14.613v1.6126c0 1.05-0.8515 1.902-1.9018 1.902h-3c-1.0503 0-1.9018-0.852-1.9018-1.902v-1.6126c-6.6456 1.5409-11.598 7.4986-11.598 14.613s4.9527 13.072 11.598 14.613v-1.613c0-1.05 0.8515-1.902 1.9018-1.902h3c1.0503 0 1.9018 0.852 1.9018 1.902zm-6-27.776c0.8439-0.1474 1.712-0.2242 2.5981-0.2242 0.8862 0 1.7544 0.0768 2.5983 0.2242v1.7758c0 0.6065-0.4917 1.098-1.0982 1.098h-3c-0.6065 0-1.0982-0.4915-1.0982-1.098v-1.7758zm2.5981 30.776c8.8366 0 16-7.163 16-16s-7.1634-16-16-16-16 7.163-16 16 7.1634 16 16 16zm-4-16.25c0 1.519-1.2312 2.75-2.75 2.75s-2.75-1.231-2.75-2.75 1.2312-2.75 2.75-2.75 2.75 1.231 2.75 2.75zm10.75 2.75c1.5188 0 2.75-1.231 2.75-2.75s-1.2312-2.75-2.75-2.75-2.75 1.231-2.75 2.75 1.2312 2.75 2.75 2.75z" clip-rule="evenodd" fill-rule="evenodd"/>
 <path d="m102 43c3.314 0 6-2.6863 6-6s-2.686-6-6-6c-3.3137 0-6 2.6863-6 6s2.6863 6 6 6zm0 1c3.866 0 7-3.134 7-7s-3.134-7-7-7-7 3.134-7 7 3.134 7 7 7z" clip-rule="evenodd" fill-rule="evenodd"/>
 <path d="m98.636 35.361-8e-3 0.0069-0.0063 0.0085c-0.0513 0.0684-0.0775 0.147-0.0775 0.2326v4.1995c0 0.0794 0.0309 0.1491 0.0868 0.205 0.0604 0.0604 0.1388 0.0868 0.2241 0.0868h6.2899c0.079 0 0.149-0.031 0.205-0.0868 0.056-0.0559 0.087-0.1256 0.087-0.205v-4.2187c0-0.0794-0.031-0.1491-0.087-0.205-0.056-0.0558-0.126-0.0868-0.205-0.0868-0.084 0-0.165 0.0188-0.226 0.074-0.062 0.0568-0.085 0.1359-0.085 0.2178v3.9078h-5.6871v-3.7662l2.8531-2.4636 1.948 1.7069-1e-3 6e-4 0.011 0.0074c0.057 0.0377 0.121 0.0551 0.19 0.0551 0.079 0 0.149-0.031 0.205-0.0868 0.073-0.0738 0.101-0.1678 0.086-0.2702v-1.3154c0-0.0794-0.03-0.1491-0.086-0.205-0.056-0.0558-0.126-0.0868-0.205-0.0868-0.08 0-0.149 0.031-0.205 0.0868-0.056 0.0559-0.087 0.1256-0.087 0.205v0.7003l-1.654-1.4448c-0.055-0.0542-0.124-0.0842-0.202-0.0842-0.084 0-0.161 0.0256-0.221 0.0841l-3.143 2.7402z" stroke="#000" stroke-width=".2"/>
 <circle class="press" cx="102" cy="37" r="13" fill="url(#radialGradient1966)"/>
</svg>
