<?xml version="1.0" encoding="UTF-8"?>
<svg width="150" height="150" fill="none" version="1.1" viewBox="0 0 150 150" xmlns="http://www.w3.org/2000/svg">
 <path d="m16 15v119h119v-119h-119zm-2-4c-1.1046 0-2 0.8954-2 2v123c0 1.105 0.8954 2 2 2h123c1.105 0 2-0.895 2-2v-123c0-1.1046-0.895-2-2-2h-123z" clip-rule="evenodd" fill="#000" fill-rule="evenodd"/>
 <g stroke="#000">
  <rect x="66.5" y="44.5" width="42" height="53" rx="1.5"/>
  <path d="m57.5 52.5c0 1.0148-0.6406 2.0028-1.8206 2.7614-1.1747 0.7552-2.8278 1.2386-4.6794 1.2386s-3.5047-0.4834-4.6794-1.2386c-1.18-0.7586-1.8206-1.7466-1.8206-2.7614s0.6406-2.0028 1.8206-2.7614c1.1747-0.7552 2.8278-1.2386 4.6794-1.2386s3.5047 0.4834 4.6794 1.2386c1.18 0.7586 1.8206 1.7466 1.8206 2.7614z"/>
  <path d="m57.5 66.5c0 1.0148-0.6406 2.0028-1.8206 2.7614-1.1747 0.7552-2.8278 1.2386-4.6794 1.2386s-3.5047-0.4834-4.6794-1.2386c-1.18-0.7586-1.8206-1.7466-1.8206-2.7614s0.6406-2.0028 1.8206-2.7614c1.1747-0.7552 2.8278-1.2386 4.6794-1.2386s3.5047 0.4834 4.6794 1.2386c1.18 0.7586 1.8206 1.7466 1.8206 2.7614z"/>
  <path d="m57.5 81.5c0 1.0148-0.6406 2.0028-1.8206 2.7614-1.1747 0.7552-2.8278 1.2386-4.6794 1.2386s-3.5047-0.4834-4.6794-1.2386c-1.18-0.7586-1.8206-1.7466-1.8206-2.7614s0.6406-2.0028 1.8206-2.7614c1.1747-0.7552 2.8278-1.2386 4.6794-1.2386s3.5047 0.4834 4.6794 1.2386c1.18 0.7586 1.8206 1.7466 1.8206 2.7614z"/>
  <path d="m57.5 103.5c0 1.015-0.6406 2.003-1.8206 2.761-1.1747 0.756-2.8278 1.239-4.6794 1.239s-3.5047-0.483-4.6794-1.239c-1.18-0.758-1.8206-1.746-1.8206-2.761s0.6406-2.003 1.8206-2.761c1.1747-0.7556 2.8278-1.239 4.6794-1.239s3.5047 0.4834 4.6794 1.239c1.18 0.758 1.8206 1.746 1.8206 2.761z"/>
  <path d="m51.228 94.484v-2.094" stroke-linecap="round" stroke-linejoin="round" stroke-width=".44264"/>
  <path d="m50.27 93.243c-0.5013 0.3179-0.8342 0.8774-0.8342 1.5151 0 0.9901 0.8027 1.7928 1.7929 1.7928 0.99 0 1.7927-0.8027 1.7927-1.7928 0-0.6377-0.3328-1.1972-0.8341-1.5151" stroke-linecap="round" stroke-linejoin="round" stroke-width=".44264"/>
  <rect x="31" y="30" width="89" height="89" rx="1" stroke-width="2"/>
 </g>
</svg>
