<?xml version="1.0" encoding="UTF-8"?>
<svg width="150" height="150" fill="none" version="1.1" viewBox="0 0 150 150" xmlns="http://www.w3.org/2000/svg">
 <path d="m21 14v122h78v-122h-78zm-1-4c-1.6569 0-3 1.3431-3 3v124c0 1.657 1.3431 3 3 3h80c1.657 0 3-1.343 3-3v-124c0-1.6569-1.343-3-3-3h-80zm109 4v122h-16v-122h16zm-20-1c0-1.6569 1.343-3 3-3h18c1.657 0 3 1.3431 3 3v124c0 1.657-1.343 3-3 3h-18c-1.657 0-3-1.343-3-3v-124zm12 56c-1.766 0-3.353 0.7622-4.452 1.9771-0.185 0.2049-0.501 0.2208-0.706 0.0355-0.205-0.1852-0.221-0.5014-0.035-0.7062 1.28-1.4157 3.133-2.3064 5.193-2.3064s3.913 0.8907 5.193 2.3064c0.186 0.2048 0.17 0.521-0.035 0.7062-0.205 0.1853-0.521 0.1694-0.706-0.0355-1.099-1.2149-2.686-1.9771-4.452-1.9771zm0 2c-1.132 0-2.153 0.4694-2.881 1.2254-0.192 0.1989-0.508 0.2048-0.707 0.0132-0.199-0.1915-0.205-0.5081-0.013-0.7069 0.908-0.9437 2.186-1.5317 3.601-1.5317s2.693 0.588 3.601 1.5317c0.192 0.1988 0.186 0.5154-0.013 0.7069-0.199 0.1916-0.515 0.1857-0.707-0.0132-0.728-0.756-1.749-1.2254-2.881-1.2254zm-3.588 6.7614c0.199-0.1916 0.515-0.1857 0.707 0.0132 0.728 0.756 1.749 1.2254 2.881 1.2254s2.153-0.4694 2.881-1.2254c0.192-0.1989 0.508-0.2048 0.707-0.0132 0.199 0.1915 0.205 0.5081 0.013 0.7069-0.908 0.9437-2.186 1.5317-3.601 1.5317s-2.693-0.588-3.601-1.5317c-0.192-0.1988-0.186-0.5154 0.013-0.7069zm-1.57 1.226c0.205-0.1853 0.521-0.1694 0.706 0.0355 1.099 1.2149 2.686 1.9771 4.452 1.9771s3.353-0.7622 4.452-1.9771c0.185-0.2049 0.501-0.2208 0.706-0.0355 0.205 0.1852 0.221 0.5014 0.035 0.7062-1.28 1.4157-3.133 2.3064-5.193 2.3064s-3.913-0.8907-5.193-2.3064c-0.186-0.2048-0.17-0.521 0.035-0.7062zm6.158-3.9874c0 0.5523-0.448 1-1 1s-1-0.4477-1-1 0.448-1 1-1 1 0.4477 1 1zm-62-9c-2.6344 0-5.0033 1.1305-6.6505 2.936-0.3723 0.408-1.0048 0.437-1.4128 0.0647-0.4079-0.3722-0.4369-1.0047-0.0647-1.4127 2.0103-2.2033 4.9081-3.588 8.128-3.588 3.2198 0 6.1176 1.3847 8.1279 3.588 0.3722 0.408 0.3433 1.0405-0.0647 1.4127-0.408 0.3723-1.0405 0.3433-1.4128-0.0647-1.6472-1.8055-4.0161-2.936-6.6504-2.936zm0 3c-1.7596 0-3.3412 0.7562-4.4401 1.9644-0.3716 0.4086-1.0041 0.4385-1.4127 0.0669-0.4085-0.3716-0.4385-1.0041-0.0669-1.4126 1.462-1.6074 3.5734-2.6187 5.9197-2.6187 2.3462 0 4.4576 1.0113 5.9196 2.6187 0.3716 0.4085 0.3416 1.041-0.0669 1.4126-0.4086 0.3716-1.0411 0.3416-1.4127-0.0669-1.0989-1.2082-2.6804-1.9644-4.44-1.9644zm-5.8528 9.9687c0.4086-0.3716 1.0411-0.3416 1.4127 0.0669 1.0989 1.2082 2.6805 1.9644 4.4401 1.9644s3.3411-0.7562 4.44-1.9644c0.3716-0.4085 1.0041-0.4385 1.4127-0.0669 0.4085 0.3716 0.4385 1.004 0.0669 1.4126-1.462 1.6074-3.5734 2.6187-5.9196 2.6187-2.3463 0-4.4577-1.0113-5.9197-2.6187-0.3716-0.4086-0.3416-1.041 0.0669-1.4126zm-2.2105 2.0306c0.408-0.3723 1.0405-0.3433 1.4128 0.0647 1.6472 1.8055 4.0161 2.936 6.6505 2.936 2.6343 0 5.0032-1.1305 6.6504-2.936 0.3723-0.408 1.0048-0.437 1.4128-0.0647 0.408 0.3722 0.4369 1.0047 0.0647 1.4127-2.0103 2.2033-4.9081 3.588-8.1279 3.588-3.2199 0-6.1177-1.3847-8.128-3.588-0.3722-0.408-0.3432-1.0405 0.0647-1.4127zm9.0632-5.9993c0 0.5523-0.4477 1-1 1s-1-0.4477-1-1 0.4477-1 1-1 1 0.4477 1 1z" clip-rule="evenodd" fill="#000" fill-rule="evenodd"/>
</svg>
