<?xml version="1.0" encoding="UTF-8"?>
<!-- Created with Inkscape (http://www.inkscape.org/) -->
<svg width="22.754mm" height="34.396mm" version="1.1" viewBox="0 0 22.754 34.396"
     xmlns="http://www.w3.org/2000/svg">
  <style type="text/css">.press {
    animation: press 5s infinite;
    }

    @keyframes press {
    0%, 5%, 15%, 25%, 35%, 100% {
    opacity: 0;
    }
    10%, 20%, 30% {
    opacity: 0.75;
    }
    }
  </style>
  <defs>
    <radialGradient id="radialGradient1966" cx="65.5" cy="109.5" r="13"
                    gradientTransform="matrix(.26458 0 0 .26458 -.22737 1.5349)"
                    gradientUnits="userSpaceOnUse">
      <stop stop-color="#0078CC" offset="0"/>
      <stop stop-color="#0078CC" offset=".6"/>
      <stop stop-color="#0078CC" stop-opacity="0" offset="1"/>
    </radialGradient>
  </defs>
  <path
    d="m1.0583 1.0583v32.279h20.637v-32.279zm-0.26458-1.0583c-0.43839 0-0.79375 0.35536-0.79375 0.79375v32.808c0 0.43842 0.35536 0.79375 0.79375 0.79375h21.167c0.43841 0 0.79375-0.35534 0.79375-0.79375v-32.808c0-0.43839-0.35534-0.79375-0.79375-0.79375z"
    clip-rule="evenodd" fill-rule="evenodd" stroke-width=".26458"/>
  <path
    d="m12.641 5.3036c0.52642 0.68718 0.39618 1.6708-0.291 2.1972-0.68718 0.52642-1.6713 0.39563-2.1978-0.29154-0.52642-0.68718-0.39617-1.6708 0.291-2.1972 0.68718-0.52587 1.6713-0.39563 2.1978 0.29155zm-0.37383 0.75747h-0.65284v-0.65339h-0.43541v0.65339h-0.65284v0.43487h0.65284v0.65284h0.43541v-0.65284h0.65284z"
    fill="none" stroke="#000" stroke-linecap="round" stroke-linejoin="round" stroke-miterlimit="10"
    stroke-width=".26458"/>
  <path
    d="m19.084 30.507c0 1.0942-0.88662 1.9803-1.9803 1.9803-1.0942 0-1.9809-0.88608-1.9809-1.9803 0-1.0937 0.88663-1.9803 1.9809-1.9803 1.0937 0 1.9803 0.88663 1.9803 1.9803z"
    fill="none" stroke="#000" stroke-miterlimit="10" stroke-width=".26458"/>
  <path
    d="m18.003 30.507c0 0.49699-0.40271 0.90025-0.8997 0.90025s-0.8997-0.40326-0.8997-0.90025 0.40271-0.90025 0.8997-0.90025 0.8997 0.40326 0.8997 0.90025z"/>
  <path
    d="m21.324 15.662h-1.2877c-1.0152-2.4185-3.0152-4.3209-5.4974-5.208v-8.1306c0-0.26321-0.21362-0.47628-0.47574-0.47628h-5.3606c-0.26321 0-0.47628 0.21307-0.47628 0.47628v8.1306c-2.4828 0.88717-4.4822 2.7896-5.4974 5.208h-1.2882v6.9753h1.1776c1.097 2.8702 3.5618 5.062 6.5982 5.7802v0.87082h4.3318v-0.87082c3.0364-0.71824 5.5018-2.91 6.5987-5.7802h1.1771z"
    fill="none" stroke="#000" stroke-miterlimit="10" stroke-width=".26458"/>
  <path
    d="m21.339 15.678h-1.2877c-1.0152-2.4185-3.0152-4.3214-5.4974-5.208v-7.0347h-6.3126v7.0347c-2.4828 0.88663-4.4822 2.7896-5.4974 5.208h-1.2877v6.9753h1.1771c1.097 2.8702 3.5618 5.062 6.5982 5.7802v0.87082h4.3318v-0.87082c3.0364-0.71824 5.5018-2.91 6.5987-5.7802h1.1771z"
    fill="none" stroke="#000" stroke-miterlimit="10" stroke-width=".26458"/>
  <path
    d="m12.641 5.3038c0.52642 0.68718 0.39618 1.6708-0.291 2.1972-0.68718 0.52642-1.6713 0.39563-2.1978-0.29155-0.52642-0.68718-0.39618-1.6708 0.291-2.1972 0.68718-0.52587 1.6713-0.39563 2.1978 0.29155z"
    fill="none"/>
  <path d="m17.601 25.456h-12.407v-12.32h11.667l0.74058 0.78363z" fill="none" stroke="#000"
        stroke-miterlimit="10" stroke-width=".26458"/>
  <circle class="press" cx="17.103" cy="30.507" r="3.4396" fill="url(#radialGradient1966)"
          stroke-width=".26458"/>
</svg>
