<?xml version="1.0" encoding="UTF-8"?>
<svg width="150" height="150" version="1.1" viewBox="0 0 150 150" xmlns="http://www.w3.org/2000/svg">
 <path d="M125.421 14H24.5794C18.7366 14 14 18.7366 14 24.5794V125.421C14 131.263 18.7366 136 24.5794 136H125.421C131.263 136 136 131.263 136 125.421V24.5794C136 18.7366 131.263 14 125.421 14ZM24.5794 10C16.5274 10 10 16.5274 10 24.5794V125.421C10 133.473 16.5274 140 24.5794 140H125.421C133.473 140 140 133.473 140 125.421V24.5794C140 16.5274 133.473 10 125.421 10H24.5794Z" clip-rule="evenodd" fill-rule="evenodd"/>
 <path d="m65.222 68.753h1.7036-1.7036zm-9.4735 0v-1.7036c-0.9408 0-1.7035 0.7627-1.7035 1.7036h1.7035zm0 14.007 1.2215 1.1874c0.3091-0.318 0.4821-0.744 0.4821-1.1874h-1.7036zm7.77 0c0 0.9408 0.7627 1.7035 1.7035 1.7035 0.9409 0 1.7036-0.7627 1.7036-1.7035h-3.4071zm-9.4735-22.016c0 0.9408 0.7627 1.7035 1.7035 1.7035 0.9409 0 1.7036-0.7627 1.7036-1.7035h-3.4071zm11.177-8.6089h-1.7035 1.7035zm-8.003-3.4994-1.1289-1.2759 1.1289 1.2759zm6.4879 0 1.1142-1.2887-1.1142 1.2887zm4.0386 51.71 1.1844 1.225-1.1844-1.225zm-14.756-0.245 1.2244-1.1842-1.2244 1.1842zm0.2451-14.756 1.1844 1.2244 0.0188-0.0182 0.0183-0.0187-1.2215-1.1875zm14.756 0.2451 1.2245-1.1844-0.0099-0.0101-0.01-0.0101-1.2046 1.2046zm2.3828 3.8985 1.6135-0.5468-1.6135 0.5468zm-5.1514-22.44h-9.4735v3.4071h9.4735v-3.4071zm-11.177 1.7036v14.007h3.4071v-14.007h-3.4071zm9.4735 0v14.007h3.4071v-14.007h-3.4071zm-6.0664-8.009v-8.6089h-3.4071v8.6089h3.4071zm6.0664-8.6089v16.618h3.4071v-16.618h-3.4071zm-6.0664 0c0-1.0262 0.3714-1.7597 0.8957-2.2236l-2.2577-2.5517c-1.3254 1.1727-2.0451 2.8709-2.0451 4.7753h3.4071zm0.8957-2.2236c0.4714-0.4171 1.1694-0.7081 2.0966-0.7081v-3.407c-1.6624 0-3.1912 0.5343-4.3543 1.5634l2.2577 2.5517zm2.0966-0.7081c0.9294 0 1.6531 0.2927 2.1484 0.7209l2.2283-2.5773c-1.1774-1.018-2.7165-1.5506-4.3767-1.5506v3.407zm2.1484 0.7209c0.5482 0.474 0.9257 1.2077 0.9257 2.2108h3.4071c0-1.9275-0.7598-3.6255-2.1045-4.7881l-2.2283 2.5773zm3.9683 49.198c-3.4662 3.3531-8.994 3.2611-12.347-0.2051l-2.4489 2.3692c4.6612 4.818 12.346 4.946 17.165 0.285l-2.3688-2.4491zm-12.347-0.2051c-3.3529-3.4661-3.261-8.994 0.2051-12.347l-2.3688-2.4488c-4.8186 4.6611-4.9463 12.346-0.2852 17.165l2.4489-2.3692zm12.552-12.142c0.9301 0.9615 1.5929 2.0778 1.9938 3.2608l3.2269-1.0936c-0.5593-1.6503-1.4839-3.2046-2.7718-4.5361l-2.4489 2.3689zm1.9938 3.2608c1.0511 3.1016 0.306 6.6629-2.1989 9.086l2.3688 2.4491c3.4868-3.373 4.5148-8.3267 3.057-12.629l-3.2269 1.0936zm0.4352-5.6499-2.8045-2.8045-2.4092 2.4092 2.8045 2.8045 2.4092-2.4092zm-14.739 2.147 2.5136-2.5856-2.4429-2.3749-2.5137 2.5855 2.443 2.375z"/>
 <path d="m71.849 75.871c2.4537-7.22 9.9134-17.537 12.613-21.137 0.4975-0.6635 1.4764-0.6667 1.9739-0.0032 3.2482 4.3318 13.409 18.416 13.409 25.095 0 6.4849-4.2882 11.968-10.184 13.769" fill="none" stroke="#000" stroke-linecap="round" stroke-linejoin="round" stroke-width="3.3594"/>
 <path d="m76.186 82.188c0.1569-0.9392-0.4772-1.8278-1.4164-1.9847s-1.8278 0.4772-1.9847 1.4164l3.4011 0.5683zm7.7283 10.212c0.9514-0.0399 1.6904-0.8434 1.6505-1.7948-0.0398-0.9514-0.8434-1.6903-1.7948-1.6505l0.1443 3.4453zm-9.4288-10.496c-1.7006-0.2842-1.7009-0.2823-1.7012-0.2804-1e-4 7e-4 -5e-4 0.0026-7e-4 0.0039-4e-4 0.0026-8e-4 0.0052-0.0012 0.0079-9e-4 0.0053-0.0017 0.0107-0.0025 0.0162-0.0017 0.0111-0.0033 0.0226-0.0048 0.0347-0.0032 0.024-0.0061 0.0499-0.0087 0.0776-0.0052 0.0555-9e-3 0.1181-0.0105 0.1879-0.0028 0.1398 0.0041 0.3066 0.0285 0.4996 0.0489 0.3872 0.1667 0.87 0.4077 1.4457 0.4797 1.1461 1.4457 2.6583 3.3362 4.5488l2.4383-2.4383c-1.6666-1.6666-2.3316-2.8159-2.5936-3.4419-0.1299-0.3103-0.1606-0.4913-0.1675-0.5463-0.0036-0.028-0.0014-0.027-2e-3 0.0023-3e-4 0.0146-0.0013 0.0359-0.0039 0.0637-0.0013 0.014-3e-3 0.0295-0.0052 0.0466-0.0011 0.0086-0.0024 0.0176-0.0038 0.0269-7e-4 0.0047-0.0014 0.0095-0.0022 0.0143-4e-4 0.0025-7e-4 0.0049-0.0012 0.0074-2e-4 0.0012-5e-4 0.0031-6e-4 0.0037-3e-4 0.0019-6e-4 0.0038-1.7011-0.2803zm2.0428 6.5419c1.9332 1.9332 3.656 2.9359 4.9775 3.4478 0.6582 0.255 1.2068 0.3844 1.6195 0.4486 0.206 0.032 0.377 0.0476 0.5098 0.0546 0.0663 0.0035 0.1231 0.0049 0.1698 0.0051 0.0233 1e-4 0.0441-1e-4 0.0624-4e-4 0.0091-2e-4 0.0176-4e-4 0.0255-7e-4 0.0039-1e-4 0.0076-2e-4 0.0112-3e-4 0.0018-1e-4 0.0036-2e-4 0.0053-2e-4 9e-4 -1e-4 0.0021-1e-4 0.0026-1e-4 0.0012-1e-4 0.0024-1e-4 -0.0697-1.7228-0.0722-1.7226-0.0709-1.7226-0.0697-1.7227 4e-4 0 0.0016 0 0.0023-1e-4 0.0016 0 0.0031-1e-4 0.0046-1e-4 3e-3 -1e-4 0.0058-2e-4 0.0085-3e-4 0.0054-2e-4 0.0102-3e-4 0.0144-4e-4 0.0084-1e-4 0.0146-2e-4 0.0185-1e-4 0.0078 0 0.0065 2e-4 -0.0035-4e-4 -0.0199-1e-3 -0.0749-0.0049-0.1624-0.0185-0.1743-0.0271-0.4824-0.0935-0.9033-0.2565-0.8367-0.3242-2.1612-1.047-3.785-2.6708l-2.4383 2.4383z"/>
</svg>
