<?xml version="1.0" encoding="UTF-8"?>
<!-- Created with Inkscape (http://www.inkscape.org/) -->
<svg width="34.252mm" height="34.254mm" version="1.1" viewBox="0 0 34.252 34.254"
     xmlns="http://www.w3.org/2000/svg">
  <style type="text/css">.press {
    animation: press 5s infinite;
    }

    @keyframes press {
    0%, 5%, 15%, 25%, 35%, 100% {
    opacity: 0;
    }
    10%, 20%, 30% {
    opacity: 0.75;
    }
    }
  </style>
  <defs>
    <radialGradient id="radialGradient1966" cx="65.5" cy="109.5" r="13"
                    gradientTransform="matrix(.26458 0 0 .26458 -12.566 -14.813)"
                    gradientUnits="userSpaceOnUse">
      <stop stop-color="#0078CC" offset="0"/>
      <stop stop-color="#0078CC" offset=".6"/>
      <stop stop-color="#0078CC" stop-opacity="0" offset="1"/>
    </radialGradient>
  </defs>
  <path
    d="m5.6464 14.166c0-0.48755-0.39536-0.88236-0.88236-0.88236s-0.88182 0.39481-0.88182 0.88236c0 0.487 0.39481 0.88182 0.88182 0.88182s0.88236-0.39482 0.88236-0.88182m24.02 7.3128c0-0.87586-0.70986-1.5848-1.5853-1.5848-0.8753 0-1.5846 0.70935-1.5846 1.5853 0 0.8753 0.70935 1.5846 1.5846 1.5846 0.8753 0 1.5853-0.70935 1.5853-1.5846m-8.1553-8.4689c-1.6346-1.2002-3.5402-1.865-5.343-1.9871m-4.7876 20.195c1.7528 0.73269 3.959 0.93876 5.6678 0.60469m-11.193-14.929c-1.4561 3.0006-1.3542 6.3538 0 9.1663m-2.921e-4 -9.1669 0.35359-0.66758 0.40186-0.63994m-5.412e-4 11.784-0.40133-0.64156-0.35359-0.6676m10.312-15.038c-3.8571-0.34383-7.4591 1.5055-9.5563 4.5625m18.234 1.5115c-1.6188-3.5447-5.0311-5.7876-8.7043-6.0762m14.648 14.839h-5.9438m5.9438 0c0.41867 0.02337 0.71967-0.30695 0.7354-0.77172m0-7.2177v7.2177m-0.29611-7.8605c-0.12474-0.09224-0.27767-0.1339-0.43928-0.13021m0.7354 0.77281c-0.01843-0.30262-0.12744-0.52008-0.29611-0.64265m-6.3832-0.13021h5.9438m-12.441 14.431c2.9903-0.90622 5.2795-3.0257 6.4986-5.6694m-7.7975 5.9644 0.43819-0.07318 0.86067-0.2218m-11.736-4.1575c2.3581 3.4904 6.5106 5.1283 10.463 4.4482m15.217 2.1264c1.1177-0.41216 1.826-1.4843 1.8309-2.6346m0-28.366v28.366m-0.94799-30.472c-0.53581-0.47399-1.2023-0.70665-1.8629-0.70611m2.8108 2.8114c0-0.8368-0.36552-1.5879-0.94799-2.1053m-30.228-0.70611h28.366m-28.366 0c-1.5533 5.5343e-4 -2.8108 1.2582-2.8114 2.8114m0 28.366v-28.366m0 28.366c0.002152 1.5544 1.2598 2.8108 2.8114 2.8108m29.044-0.08301-0.29069 0.0558-0.27387 0.0249-0.11388 0.0015h-28.366m4.92e-4 -0.01808v0.01537m31.171-31.173h-0.1589m-2.6466-2.6466v-0.15891m-28.366-0.0061492v0.16487m-2.8114 2.6467h0.16486m0 28.366h-0.15945m2.8054 2.646v0.1442m28.367 0.02065v-0.1648m0.10738-0.0017 0.0065 0.1589m2.5327-31.17v28.366l-0.0244 0.36174-0.07484 0.35467m0.09925-29.083c0-0.76576-0.32594-1.4567-0.84874-1.9414-0.50978-0.47236-1.1562-0.70502-1.7972-0.70502m-28.366 0h28.366m-28.366 0c-0.76196 0-1.4496 0.32268-1.9339 0.84059-0.47724 0.51087-0.71315 1.1606-0.71261 1.806m0 28.366v-28.366m0 28.366c0 0.75275 0.31508 1.4328 0.82216 1.9161 0.5125 0.48863 1.1693 0.73104 1.8238 0.72997m28.474-0.0015-0.10738 0.0015h-28.366m28.474-0.0015c1.173-0.05104 2.1248-0.84385 2.4398-1.9279"
    fill="none" stroke="#000" stroke-linecap="round" stroke-miterlimit="5.5" stroke-width=".26458"/>
  <path
    d="m4.504 13.244c-0.48159 0.13728-0.756 0.65838-0.61229 1.1638 0.14372 0.50545 0.65078 0.80373 1.1329 0.66651 0.48159-0.13666 0.756-0.65782 0.61229-1.1633-0.14372-0.50545-0.65134-0.80373-1.1329-0.66706"
    fill-rule="evenodd" stroke-miterlimit="5.5" stroke-width=".26458"/>
  <path
    d="m4.504 13.244c-0.48159 0.13728-0.756 0.65838-0.61229 1.1638 0.14372 0.50545 0.65078 0.80373 1.1329 0.66651 0.48159-0.13666 0.756-0.65782 0.61229-1.1633-0.14372-0.50545-0.65134-0.80373-1.1329-0.66706m1.109 3.9605 0.08243 0.04766m0.86012-1.7522-0.42463 0.67464-0.35468 0.66814-0.18764 0.37801m1.232-3.0609c0-1.1335-0.91924-2.0521-2.0532-2.0521-1.134 0-2.0527 0.91869-2.0527 2.0521 0 1.1345 0.9187 2.0532 2.0527 2.0532s2.0532-0.91869 2.0532-2.0532m18.242 2.7805h-0.29178m0.29178 0v0.15127m-0.29178 8.9137h0.29178m0-0.15127v0.15127m3.286 0.01076h3.8923m0.077-23.078v14.757m-0.46043-15.602c-0.16975-0.10899-0.3601-0.16108-0.54396-0.16054m1.0044 1.0049c0-0.3525-0.18168-0.66271-0.46044-0.84439m-28.91-0.16054h28.366m-28.366 0c-0.55479 5.534e-4 -1.0044 0.45067-1.0049 1.0049m0 28.366v-28.366m0 28.366c5.411e-4 0.55479 0.45012 1.0044 1.0049 1.0044m28.366 0h-28.366m28.366 0c0.2652 0.0077 0.52388-0.10961 0.71424-0.30099 0.19794-0.20175 0.29611-0.4599 0.29015-0.7034m0-6.0545v6.0545m-0.32268-14.235c-0.13667-0.09869-0.29502-0.14589-0.45067-0.14527m0.77335 0.77118c-0.0043-0.25977-0.12907-0.48592-0.32268-0.62585m-7.1885-0.30478 0.07972 0.09808 0.11281 0.05365 6.5453 0.0077m-7.7818 10.958c0.43819-0.57812 0.8086-1.1871 1.0792-1.7561m-0.03525-9.361c-0.76576-1.5419-1.8564-2.8157-3.0956-3.7387-4.6694-3.5392-11.322-2.626-14.858 2.0397-3.5359 4.6661-2.6179 11.317 2.0517 14.856 4.6695 3.5392 11.322 2.626 14.858-2.0403m7.7818-1.8612h-6.4812l-0.12311 0.02813-0.09816 0.0764m6.7026-0.10469c0.42789-0.0011 0.76631-0.3422 0.77335-0.77064m-10.62-12.218c-0.92032-0.69742-1.9247-1.2235-2.896-1.5527m6.0285 5.3501c-0.7918-1.5879-1.8916-2.8786-3.1324-3.7974m9.847 3.908h-6.4818l-0.12907-0.02921-0.10358-0.08132m7.2508 0.33407c-0.14752-0.14804-0.34166-0.22289-0.53636-0.22343m0.75546 0.75546c-5.43e-4 -0.20772-0.08352-0.3959-0.2191-0.53203m0.2191 8.0866v-7.5546m-0.75546 8.3095c0.41813 0 0.75492-0.33787 0.75546-0.75492m-7.5074 0.92304 0.08352-0.103 0.11931-0.05749 6.549-0.0077m-12.722 5.4546c2.711-0.95558 4.7893-2.9009 5.9699-5.2849m7.4488-9.2456h-3.8923"
    fill="none" stroke="#000" stroke-linecap="round" stroke-miterlimit="5.5" stroke-width=".26458"/>
  <path
    d="m28.948 21.284h-0.64971v-0.65024h-0.43332v0.65024h-0.64971v0.43278h0.64971v0.64971h0.43332v-0.64971h0.64971z"
    fill="none" stroke="#000" stroke-linecap="round" stroke-linejoin="round" stroke-miterlimit="5.5"
    stroke-width=".26458"/>
  <circle class="press" cx="4.7643" cy="14.159" r="3.4396" fill="url(#radialGradient1966)"
          stroke-width=".26458"/>
</svg>
