<?xml version="1.0" encoding="UTF-8"?>
<svg width="150" height="150" fill="none" version="1.1" viewBox="0 0 150 150" xmlns="http://www.w3.org/2000/svg">
 <path d="m24.579 14h100.84c5.842 0 10.579 4.7366 10.579 10.579v100.84c0 5.842-4.737 10.579-10.579 10.579h-100.84c-5.8428 0-10.579-4.737-10.579-10.579v-100.84c0-5.8428 4.7366-10.579 10.579-10.579zm-14.579 10.579c0-8.052 6.5274-14.579 14.579-14.579h100.84c8.052 0 14.579 6.5274 14.579 14.579v100.84c0 8.052-6.527 14.579-14.579 14.579h-100.84c-8.052 0-14.579-6.527-14.579-14.579zm20.43 2.4206c-1.8943 0-3.4299 1.5356-3.4299 3.4299v89.14c0 1.894 1.5356 3.43 3.4299 3.43h89.14c1.894 0 3.43-1.536 3.43-3.43v-89.14c0-1.8943-1.536-3.4299-3.43-3.4299zm-1.4299 3.4299c0-0.7897 0.6402-1.4299 1.4299-1.4299h89.14c0.79 0 1.43 0.6402 1.43 1.4299v89.14c0 0.79-0.64 1.43-1.43 1.43h-89.14c-0.7897 0-1.4299-0.64-1.4299-1.43zm46 80.57c19.882 0 36-16.118 36-36 0-19.882-16.118-36-36-36-19.882 0-36 16.118-36 36 0 19.882 16.118 36 36 36zm0 2c20.987 0 38-17.013 38-38s-17.013-38-38-38-38 17.013-38 38 17.013 38 38 38zm30-38c0 16.568-13.432 30-30 30s-30-13.432-30-30 13.432-30 30-30 30 13.432 30 30zm2 0c0 17.673-14.327 32-32 32s-32-14.327-32-32 14.327-32 32-32 32 14.327 32 32zm-40-2.5c0 3.0376-2.4624 5.5-5.5 5.5s-5.5-2.4624-5.5-5.5 2.4624-5.5 5.5-5.5 5.5 2.4624 5.5 5.5zm21.5 5.5c3.0376 0 5.5-2.4624 5.5-5.5s-2.4624-5.5-5.5-5.5-5.5 2.4624-5.5 5.5 2.4624 5.5 5.5 5.5z" clip-rule="evenodd" fill="#000" fill-rule="evenodd"/>
</svg>
